<?xml version="1.0" encoding="UTF-8" standalone="no"?>
<!-- Created with Inkscape (http://www.inkscape.org/) -->

<svg
   xmlns:dc="http://purl.org/dc/elements/1.1/"
   xmlns:cc="http://creativecommons.org/ns#"
   xmlns:rdf="http://www.w3.org/1999/02/22-rdf-syntax-ns#"
   xmlns:svg="http://www.w3.org/2000/svg"
   xmlns="http://www.w3.org/2000/svg"
   xmlns:sodipodi="http://sodipodi.sourceforge.net/DTD/sodipodi-0.dtd"
   xmlns:inkscape="http://www.inkscape.org/namespaces/inkscape"
   id="svg3348"
   version="1.1"
   inkscape:version="0.91 r13725"
   width="230"
   height="230"
   viewBox="0 0 230 230"
   sodipodi:docname="paper.svg">
  <metadata
     id="metadata3354">
    <rdf:RDF>
      <cc:Work
         rdf:about="">
        <dc:format>image/svg+xml</dc:format>
        <dc:type
           rdf:resource="http://purl.org/dc/dcmitype/StillImage" />
        <dc:title></dc:title>
      </cc:Work>
    </rdf:RDF>
  </metadata>
  <defs
     id="defs3352" />
  <sodipodi:namedview
     pagecolor="#ffffff"
     bordercolor="#666666"
     borderopacity="1"
     objecttolerance="10"
     gridtolerance="10"
     guidetolerance="10"
     inkscape:pageopacity="0"
     inkscape:pageshadow="2"
     inkscape:window-width="826"
     inkscape:window-height="730"
     id="namedview3350"
     showgrid="false"
     inkscape:zoom="1.0442478"
     inkscape:cx="49.817792"
     inkscape:cy="113"
     inkscape:window-x="3179"
     inkscape:window-y="223"
     inkscape:window-maximized="0"
     inkscape:current-layer="svg3348" />
  <path
     style="fill:#000000"
     d="M 53.586058,215.11242 C 45.143197,210.61055 29.843751,196.34355 22.963477,186.55633 l -4.800936,-6.82935 3.050755,-8.17065 c 1.677915,-4.49386 3.534363,-9.52065 4.125437,-11.17065 0.684254,-1.91011 1.008005,-12.79494 0.891148,-29.96131 C 26.018091,99.31238 26.38918,96.94461 33.915496,81.385689 39.299278,70.25596 53.89644,47.809686 57.301489,45.424697 c 3.306487,-2.315954 6.304852,-1.870707 10.152553,1.507619 4.221493,3.70652 7.037511,11.376553 6.36557,17.338001 -0.302431,2.683158 -2.652982,7.905108 -6.617464,14.701262 -3.381636,5.797005 -6.14843,11.289711 -6.14843,12.206001 0,0.9163 1.091692,4.93798 2.425982,8.93705 1.33429,3.99909 2.936997,11.99605 3.561571,17.77105 0.624574,5.775 1.35771,11.98615 1.629191,13.80256 0.539495,3.60962 3.027474,5.30531 4.538392,3.09316 1.705747,-2.4974 0.212867,-20.79654 -2.636654,-32.31908 l -2.701346,-10.92336 3.841432,-3.28909 c 2.112788,-1.808998 4.15659,-3.305984 4.541783,-3.326634 0.385193,-0.02065 12.065872,-13.650047 25.957071,-30.287547 28.77674,-34.465962 34.77815,-41.066464 38.88624,-42.768091 3.64222,-1.508654 9.11611,-0.567825 11.40379,1.960032 2.48392,2.744706 3.09657,9.105348 1.22551,12.723578 -2.12545,4.110159 -11.75656,17.009198 -25.89409,34.680193 -16.08982,20.111238 -17.52443,22.337307 -15.62172,24.240016 0.81826,0.818268 2.18208,1.221325 3.03069,0.895681 0.84862,-0.325644 10.04101,-9.903913 20.42754,-21.285041 34.78184,-38.112483 39.06555,-42.173934 46.03439,-43.645938 2.6195,-0.553308 3.74407,-0.143526 6.67975,2.434039 1.94148,1.704645 3.8121,4.383879 4.15692,5.953852 1.29279,5.886028 -0.78014,8.617189 -34.96046,46.061679 -23.46956,25.710861 -24.65066,27.135191 -24.32432,29.333581 0.16408,1.10537 0.8127,2.17897 1.44138,2.38578 0.62868,0.2068 10.07868,-8.3156 21,-18.938673 34.86154,-33.909508 39.22346,-37.780688 42.57007,-37.780688 2.06351,0 4.03796,1.05108 6.38688,3.4 7.13232,7.132324 4.13515,12.954214 -19.77701,38.416001 -26.62832,28.35396 -35.82299,38.60693 -35.82299,39.94619 0,2.59259 3.03881,2.39895 6.40971,-0.40844 1.88461,-1.56957 8.31857,-7.35376 14.29768,-12.85376 15.47742,-14.23719 30.07321,-26.78309 32.92866,-28.30401 1.34652,-0.7172 3.35488,-1.01625 4.46302,-0.66454 2.68487,0.85215 5.34214,6.57448 4.53898,9.77453 -2.0457,8.15075 -23.58945,32.9019 -43.80874,50.33093 -5.31888,4.58488 -13.11048,12.3905 -17.31467,17.34584 -14.98576,17.66318 -41.32317,34.74798 -59.412937,38.54053 -4.180932,0.87653 -9.693265,2.05125 -12.249628,2.61047 -3.103105,0.67882 -6.370839,2.48741 -9.831654,5.44151 -2.851047,2.4336 -5.934478,4.41169 -6.852068,4.39575 -0.91759,-0.016 -4.803792,-1.70087 -8.636005,-3.74427 z M 126.83538,147.7691 c 0.15492,-0.79796 -2.2434,-4.78382 -5.3296,-8.85746 -6.65265,-8.78119 -9.46696,-14.11142 -14.5334,-27.52596 -3.71032,-9.82388 -6.10211,-12.64807 -7.358664,-8.68902 -0.78964,2.48793 3.742224,16.83124 7.981794,25.26231 3.86029,7.67686 9.3187,15.28722 13.76062,19.18571 3.28309,2.88143 5.00302,3.07744 5.47925,0.62442 z"
     id="path3358"
     inkscape:connector-curvature="0" />
</svg>
