<?xml version="1.0" encoding="UTF-8" standalone="no"?>
<!-- Created with Inkscape (http://www.inkscape.org/) -->

<svg
   xmlns:dc="http://purl.org/dc/elements/1.1/"
   xmlns:cc="http://creativecommons.org/ns#"
   xmlns:rdf="http://www.w3.org/1999/02/22-rdf-syntax-ns#"
   xmlns:svg="http://www.w3.org/2000/svg"
   xmlns="http://www.w3.org/2000/svg"
   xmlns:sodipodi="http://sodipodi.sourceforge.net/DTD/sodipodi-0.dtd"
   xmlns:inkscape="http://www.inkscape.org/namespaces/inkscape"
   id="svg3336"
   version="1.1"
   inkscape:version="0.91 r13725"
   width="230"
   height="230"
   viewBox="0 0 230 230"
   sodipodi:docname="rock.svg">
  <metadata
     id="metadata3342">
    <rdf:RDF>
      <cc:Work
         rdf:about="">
        <dc:format>image/svg+xml</dc:format>
        <dc:type
           rdf:resource="http://purl.org/dc/dcmitype/StillImage" />
        <dc:title></dc:title>
      </cc:Work>
    </rdf:RDF>
  </metadata>
  <defs
     id="defs3340" />
  <sodipodi:namedview
     pagecolor="#ffffff"
     bordercolor="#666666"
     borderopacity="1"
     objecttolerance="10"
     gridtolerance="10"
     guidetolerance="10"
     inkscape:pageopacity="0"
     inkscape:pageshadow="2"
     inkscape:window-width="1243"
     inkscape:window-height="1077"
     id="namedview3338"
     showgrid="false"
     inkscape:zoom="2.1604302"
     inkscape:cx="-74.98743"
     inkscape:cy="197.91801"
     inkscape:window-x="2983"
     inkscape:window-y="164"
     inkscape:window-maximized="0"
     inkscape:current-layer="svg3336" />
  <path
     style="fill:#000000"
     d="M 77.147192,201.86752 C 68.378962,195.74246 58.202882,186.4638 50.971222,178 44.352925,170.25407 35.305444,155.16421 32.160602,146.62666 l -1.795115,-4.87334 5.449482,-5.12666 c 2.997216,-2.81966 7.635799,-6.92954 10.307963,-9.13306 l 4.85848,-4.0064 0.83607,-13.65958 c 1.27056,-20.758339 5.14486,-30.21108 17.35424,-42.34188 8.10963,-8.057443 20.37899,-15.402669 30.14338,-18.045766 5.949118,-1.610354 6.664758,-1.615872 10.647058,-0.08209 4.18253,1.610903 30.60759,20.013137 40.04581,27.887635 6.44397,5.376339 7.19177,6.96531 5.2268,11.106178 -3.67782,7.750422 -13.43447,10.764742 -21.50929,6.645272 -2.39723,-1.22298 -7.8761,-5.57428 -12.17525,-9.669564 l -7.81665,-7.445969 -6.00109,4.61773 c -3.30059,2.53975 -6.00108,5.280622 -6.00108,6.090827 0,0.810204 0.85992,4.046406 1.91093,7.191556 5.399,16.156531 2.92162,30.255121 -7.857858,44.718451 -5.67187,7.61022 -6.47186,9.40207 -4.53028,10.14712 3.43058,1.31644 13.974218,-11.91931 17.502698,-21.97166 1.12446,-3.2035 2.55168,-9.41115 3.17161,-13.79478 0.94398,-6.67511 1.38516,-7.85775 2.71502,-7.27797 0.87333,0.38075 4.28789,1.65646 7.58789,2.83491 4.90717,1.75238 6.05549,2.59068 6.30467,4.60251 0.90873,7.33689 3.43451,12.01317 9.32064,17.25636 5.72572,5.10031 6.00918,5.58028 6.86297,11.62063 1.51063,10.68723 7.74769,17.02134 18.23841,18.5222 2.59968,0.37193 5.01087,1.13604 5.35819,1.69802 0.81405,1.31716 -7.64479,9.46846 -14.64611,14.1136 -11.46071,7.60381 -19.23754,9.65993 -39.60789,10.47194 l -14.169118,0.56482 -5.78009,6.93898 C 88.769682,202.64141 85.182542,206 83.674692,206 c -0.33645,0 -3.27382,-1.85962 -6.5275,-4.13248 z m 79.539398,-47.52698 c -4.92832,-4.45244 -6.95517,-8.11924 -6.95517,-12.58267 0,-2.62504 0.91121,-4.21542 4.25,-7.41773 4.97742,-4.77396 16.92719,-14.20975 24.95587,-19.70567 l 5.64693,-3.86552 4.23421,2.36552 c 5.6953,3.1818 9.94314,8.6714 10.6211,13.72596 0.49099,3.66064 0.20836,4.41518 -2.65605,7.09094 -3.51993,3.28811 -27.63206,19.78033 -32.78215,22.42235 -3.22965,1.65682 -3.23064,1.65655 -7.31474,-2.03318 z m -17.0559,-28.09342 c -5.18812,-4.83943 -6.12853,-9.91724 -2.97975,-16.08936 1.79338,-3.51531 3.34178,-4.77589 9.64146,-7.84923 5.01132,-2.444811 8.74,-5.118301 11.22199,-8.046251 9.18901,-10.840072 12.76614,-14.052447 17.08629,-15.344041 3.92511,-1.173487 4.73834,-1.108599 8,0.638326 4.05245,2.170465 10.13074,10.486425 10.13074,13.860285 0,2.645701 -3.11419,5.6321 -17.5,16.781871 C 160.09492,121.93032 148.04117,130 145.65406,130 c -1.10005,0 -3.81057,-1.6888 -6.02337,-3.75288 z m -18.29301,-21.5762 c -5.25153,-1.58523 -8.32929,-5.70893 -7.0299,-9.418911 0.54991,-1.57007 1.82896,-2.87711 2.97812,-3.0433 2.14357,-0.31 16.44552,9.118901 16.44552,10.842091 0,1.15527 -4.34171,2.98516 -6.8151,2.87235 -0.92669,-0.0423 -3.43708,-0.60577 -5.57864,-1.25223 z m 36.85254,-27.716442 c -1.01814,-1.125038 -5.81289,-4.995285 -10.65498,-8.600551 -4.8421,-3.605265 -8.80382,-7.01899 -8.80382,-7.586056 0,-0.567065 1.92023,-2.951263 4.26719,-5.298215 11.32886,-11.32886 28.73281,-5.879092 28.73281,8.997215 0,4.38087 -1.20619,6.940915 -5.31616,11.283129 -3.56172,3.762987 -5.63487,4.06658 -8.22504,1.204478 z m -35.3871,-26.458501 c -6.45746,-4.405523 -11.10517,-6.807612 -14.75001,-7.623292 -2.92693,-0.655019 -5.3217,-1.61871 -5.3217,-2.141534 0,-1.616188 12.18187,-12.783289 16.15739,-14.811443 C 120.95842,24.863868 124.03412,24 125.7237,24 c 9.98655,0 18.85156,10.903264 16.16219,19.878226 -1.43607,4.792425 -6.77759,13.131151 -8.38245,13.085936 -0.69961,-0.01971 -5.51475,-2.930394 -10.70032,-6.468184 z"
     id="path3346"
     inkscape:connector-curvature="0" />
</svg>
