<?xml version="1.0" encoding="UTF-8" standalone="no"?>
<!-- Created with Inkscape (http://www.inkscape.org/) -->

<svg
   xmlns:dc="http://purl.org/dc/elements/1.1/"
   xmlns:cc="http://creativecommons.org/ns#"
   xmlns:rdf="http://www.w3.org/1999/02/22-rdf-syntax-ns#"
   xmlns:svg="http://www.w3.org/2000/svg"
   xmlns="http://www.w3.org/2000/svg"
   xmlns:sodipodi="http://sodipodi.sourceforge.net/DTD/sodipodi-0.dtd"
   xmlns:inkscape="http://www.inkscape.org/namespaces/inkscape"
   id="svg3348"
   version="1.1"
   inkscape:version="0.91 r13725"
   width="230"
   height="230"
   viewBox="0 0 230 230"
   sodipodi:docname="scissors.svg">
  <metadata
     id="metadata3354">
    <rdf:RDF>
      <cc:Work
         rdf:about="">
        <dc:format>image/svg+xml</dc:format>
        <dc:type
           rdf:resource="http://purl.org/dc/dcmitype/StillImage" />
        <dc:title></dc:title>
      </cc:Work>
    </rdf:RDF>
  </metadata>
  <defs
     id="defs3352" />
  <sodipodi:namedview
     pagecolor="#ffffff"
     bordercolor="#666666"
     borderopacity="1"
     objecttolerance="10"
     gridtolerance="10"
     guidetolerance="10"
     inkscape:pageopacity="0"
     inkscape:pageshadow="2"
     inkscape:window-width="1152"
     inkscape:window-height="928"
     id="namedview3350"
     showgrid="false"
     inkscape:zoom="1.0442478"
     inkscape:cx="161.58474"
     inkscape:cy="113"
     inkscape:window-x="3400"
     inkscape:window-y="109"
     inkscape:window-maximized="1"
     inkscape:current-layer="svg3348" />
  <path
     style="fill:#000000"
     d="m 56.359135,222.55593 c -7.7134,-4.25243 -18.21264,-12.27239 -23.58431,-18.01514 -4.89059,-5.22844 -16.628214,-22.62104 -16.628214,-24.6394 0,-0.63995 3.382789,-4.90558 7.517308,-9.47919 6.573936,-7.27208 7.770986,-9.20034 9.538746,-15.36534 4.82413,-16.82395 7.45322,-24.81215 12.06199,-36.64894 l 4.90564,-12.59925 9.24803,-5.12324 c 9.97902,-5.528181 18.73518,-9.324981 28.22828,-12.240201 7.80406,-2.39653 23.818785,-5.93806 26.851795,-5.93806 2.23653,0 24.80066,15.461854 34.14645,23.398521 3.95655,3.36001 3.97859,3.41711 2.11397,5.47748 -2.59798,2.87074 -11.75276,6.124 -17.23314,6.124 -4.95308,0 -16.60376,-4.22294 -23.28248,-8.43903 -2.23126,-1.40853 -4.63453,-2.56097 -5.3406,-2.56097 -0.70606,0 -4.2025,2.61156 -7.769875,5.80347 -3.56736,3.19191 -9.74862,8.38608 -13.73612,11.54259 l -7.25,5.73913 0,6.79744 c 0,8.22011 -2.72914,19.32861 -6.90789,28.11737 -3.33401,7.01209 -3.8618,10 -1.76642,10 3.36323,0 9.49448,-10.37273 12.14403,-20.54502 0.84165,-3.23135 1.53028,-9.54583 1.53028,-14.03219 l 0,-8.15702 3.81731,-2.52617 c 2.09952,-1.3894 6.71202,-4.94096 10.25,-7.89237 3.53798,-2.95141 7.157145,-5.9272 8.042575,-6.61286 1.33302,-1.03228 3.13871,-0.5806 10.49999,2.62647 4.88957,2.13023 9.72831,4.16332 10.75275,4.51798 3.09338,1.07093 0.40783,3.1159 -11.7998,8.98521 -16.245655,7.81074 -21.562825,13.21274 -21.562825,21.90685 0,4.67072 4.90844,10.99577 10.614515,13.67794 5.10006,2.39731 5.11174,2.47425 1.71796,11.31884 -1.79297,4.67272 -1.78961,4.84038 0.16906,8.41898 3.42145,6.25117 6.51798,7.81336 15.48745,7.81336 4.31217,0 8.12839,0.28716 8.48047,0.63814 0.95251,0.9495 -6.89347,6.97075 -15.96945,12.25546 -9.9308,5.78245 -18.803305,8.6064 -27.040235,8.6064 -7.89231,0 -10.71441,1.05824 -16.12689,6.04728 -2.3585,2.174 -4.86074,3.94457 -5.56053,3.9346 -0.69979,-0.01 -3.65171,-1.32986 -6.55982,-2.93312 z M 112.56692,188.6583 c -4.37026,-2.71692 -6.02542,-7.08862 -4.08837,-10.79844 3.24453,-6.21389 10.6784,-10.94013 27.23609,-17.31593 11.56045,-4.45153 17.65243,-5.6023 21.41253,-4.04481 6.0663,2.51274 7.92763,9.31247 3.93765,14.3849 -2.21283,2.81316 -15.87714,9.73897 -29.91821,15.16417 -11.73186,4.53297 -14.79461,4.96323 -18.57969,2.61011 z m -9.92031,-27.8087 c -3.173295,-0.86011 -6.500005,-4.4767 -6.500005,-7.0664 0,-6.92649 6.227675,-11.74546 27.500005,-21.27952 28.2297,-12.65228 36.24818,-14.40217 41.57692,-9.07343 7.32138,7.32137 0.23778,15.77787 -22.22406,26.53137 -18.33631,8.77844 -33.26988,12.8078 -40.35286,10.88798 z m 39.72322,-66.295161 c -11.36799,-8.56604 -11.30844,-8.44471 -5.77461,-11.7644 2.55142,-1.53058 13.73174,-8.5585 24.84517,-15.6176 29.25337,-18.58136 37.48709,-22.44889 43.88554,-20.61384 7.02271,2.01409 10.4624,8.87316 7.40989,14.77606 -0.87328,1.68874 -4.40061,5.05989 -7.8385,7.49144 -7.25874,5.13394 -52.22178,31.681071 -53.65844,31.681071 -0.53305,0 -4.52412,-2.678727 -8.86905,-5.952731 z m -20.195,-14.59631 c -4.16324,-2.93911 -8.63278,-3.12595 -21.39136,-0.89424 -4.874735,0.85268 -9.098195,1.31528 -9.385465,1.02801 -0.69368,-0.69369 2.04975,-4.81049 7.89215,-11.843 4.572645,-5.50409 12.367145,-17.00535 29.305255,-43.24173 8.59045,-13.30623 14.91308,-20.5019303 18.00941,-20.4962603 2.98339,0.005 7.82419,3.26161 9.48639,6.3809903 2.10228,3.94526 1.00114,7.18954 -14.11799,41.59568 -9.34262,21.26072 -13.64891,30.00528 -14.75908,29.97055 -0.86214,-0.027 -3.12983,-1.15197 -5.03931,-2.5 z"
     id="path3358"
     inkscape:connector-curvature="0" />
</svg>
