<?xml version="1.0" encoding="utf-8"?>
<!-- Generator: Adobe Illustrator 22.1.0, SVG Export Plug-In . SVG Version: 6.00 Build 0)  -->
<svg version="1.1" id="Layer_2" xmlns="http://www.w3.org/2000/svg" xmlns:xlink="http://www.w3.org/1999/xlink" x="0px" y="0px"
	 viewBox="0 0 59 76" style="enable-background:new 0 0 59 76;" xml:space="preserve">
<style type="text/css">
	.st0{fill:#FBAE16;}
</style>
<g id="g6829">
	<path id="path6831" class="st0" d="M19.7,39.7v9.5h14.7V56H19.7v9.5h13.7c4.6,0,8-1.1,10.2-3.2c2.2-2.1,3.3-5.4,3.3-9.8
		c0-4.4-1.1-7.6-3.3-9.7c-2.2-2.1-5.6-3.2-10.2-3.2L19.7,39.7 M19.7,10.8V32h12.7c4.2,0,7.3-0.9,9.3-2.6c2.1-1.8,3.1-4.4,3.1-8
		c0-3.5-1-6.2-3.1-8c-2-1.8-5.2-2.6-9.3-2.6L19.7,10.8 M11.1,3H33C39.5,3,44.5,4.5,48,7.5c3.5,3,5.3,7.3,5.3,12.9
		c0,4.3-0.9,7.7-2.7,10.3c-1.8,2.5-4.4,4.1-8,4.8c4.2,1,7.5,3.1,9.8,6.3c2.3,3.2,3.5,7.1,3.5,11.9c0,6.3-1.9,11.1-5.8,14.6
		c-3.8,3.4-9.3,5.1-16.4,5.1H11.1V56H3v-6.8h8.1L11.1,3"/>
</g>
</svg>
