<?xml version="1.0" encoding="utf-8"?>
<!-- Generator: Adobe Illustrator 22.1.0, SVG Export Plug-In . SVG Version: 6.00 Build 0)  -->
<svg version="1.1" id="Layer_2" xmlns="http://www.w3.org/2000/svg" xmlns:xlink="http://www.w3.org/1999/xlink" x="0px" y="0px"
	 viewBox="0 0 56 30" style="enable-background:new 0 0 56 30;" xml:space="preserve">
<style type="text/css">
	.st0{fill:#FFFFFF;}
</style>
<g>
	<g id="g6829">
		<path id="path6831" class="st0" d="M36.9,17v3.7h5.7v2.6h-5.7V27h5.3c1.8,0,3.1-0.4,4-1.2c0.9-0.8,1.3-2.1,1.3-3.8
			c0-1.7-0.4-3-1.3-3.8c-0.9-0.8-2.2-1.2-4-1.2L36.9,17 M36.9,5.8V14h4.9c1.6,0,2.8-0.3,3.6-1c0.8-0.7,1.2-1.7,1.2-3.1
			c0-1.4-0.4-2.4-1.2-3.1c-0.8-0.7-2-1-3.6-1L36.9,5.8 M33.6,2.7h8.5c2.5,0,4.5,0.6,5.8,1.8c1.4,1.2,2.1,2.8,2.1,5
			c0,1.7-0.4,3-1.1,4c-0.7,1-1.7,1.6-3.1,1.8c1.6,0.4,2.9,1.2,3.8,2.4c0.9,1.2,1.4,2.8,1.4,4.6c0,2.4-0.7,4.3-2.2,5.6
			c-1.5,1.3-3.6,2-6.4,2h-8.8v-6.7h-3.1v-2.6h3.1L33.6,2.7"/>
	</g>
	<g>
		<path class="st0" d="M3.1,10.9L3.2,13c1.4-1.6,3.3-2.5,5.7-2.5c2.7,0,4.5,1,5.5,3.1c0.6-0.9,1.5-1.7,2.5-2.2s2.2-0.8,3.6-0.8
			c4.2,0,6.3,2.2,6.4,6.7V30h-3.3V17.4c0-1.4-0.3-2.4-0.9-3.1c-0.6-0.7-1.7-1-3.1-1c-1.2,0-2.2,0.4-3,1.1c-0.8,0.7-1.3,1.7-1.4,2.9
			V30h-3.3V17.5c0-2.8-1.4-4.2-4.1-4.2c-2.1,0-3.6,0.9-4.4,2.7v14H0V10.9H3.1z"/>
	</g>
</g>
</svg>
