<svg id="Layer_2" data-name="Layer 2" xmlns="http://www.w3.org/2000/svg" viewBox="0 0 56 30"><defs><style>.cls-1{fill:#fff;}</style></defs><title>Artboard 1</title><path class="cls-1" d="M3.25,9.92l.09,2.23a7.42,7.42,0,0,1,6-2.6q4.2,0,5.73,3.23a7.47,7.47,0,0,1,6.4-3.23q6.6,0,6.72,7V30H24.72V16.75a4.6,4.6,0,0,0-1-3.22,4.33,4.33,0,0,0-3.3-1.06,4.54,4.54,0,0,0-3.17,1.14,4.6,4.6,0,0,0-1.47,3.07V30H12.34V16.84q0-4.36-4.29-4.37a4.59,4.59,0,0,0-4.62,2.87V30H0V9.92Z"/><polygon class="cls-1" points="52.4 10.25 52.4 5.31 42.8 5.31 35.8 5.31 35.8 10.25 35.8 14.5 29.86 14.5 29.86 17.99 35.8 17.99 35.8 19.7 29.86 19.7 29.86 23.19 35.8 23.19 35.8 29.93 42.8 29.93 42.8 23.19 48.74 23.19 48.74 19.7 42.8 19.7 42.8 17.99 48.74 17.99 48.74 14.5 42.8 14.5 42.8 10.25 52.4 10.25"/></svg>