<svg viewBox="0 0 56 30" xmlns="http://www.w3.org/2000/svg"><path d="m3.25 9.92.09 2.23a7.42 7.42 0 0 1 6-2.6q4.2 0 5.73 3.23a7.47 7.47 0 0 1 6.4-3.23q6.6 0 6.72 7v13.45h-3.47v-13.25a4.6 4.6 0 0 0 -1-3.22 4.33 4.33 0 0 0 -3.3-1.06 4.54 4.54 0 0 0 -3.17 1.14 4.6 4.6 0 0 0 -1.47 3.07v13.32h-3.44v-13.16q0-4.36-4.29-4.37a4.59 4.59 0 0 0 -4.62 2.87v14.66h-3.43v-20.08z"/><path d="m52.4 10.25v-4.94h-9.6-7v4.94 4.25h-5.94v3.49h5.94v1.71h-5.94v3.49h5.94v6.74h7v-6.74h5.94v-3.49h-5.94v-1.71h5.94v-3.49h-5.94v-4.25z"/></svg>