<?xml version="1.0" encoding="utf-8"?>
<!-- Generator: Adobe Illustrator 22.1.0, SVG Export Plug-In . SVG Version: 6.00 Build 0)  -->
<svg version="1.1" id="Layer_2" xmlns="http://www.w3.org/2000/svg" xmlns:xlink="http://www.w3.org/1999/xlink" x="0px" y="0px"
	 viewBox="0 0 76 76" style="enable-background:new 0 0 76 76;" xml:space="preserve">
<g>
	<g id="g6829">
		<path id="path6831" d="M47.3,40.6v3.6h5.6v2.6h-5.6v3.7h5.3c1.8,0,3.1-0.4,3.9-1.2c0.9-0.8,1.3-2.1,1.3-3.7c0-1.7-0.4-2.9-1.3-3.7
			c-0.8-0.8-2.2-1.2-3.9-1.2L47.3,40.6 M47.3,29.5v8.1h4.9c1.6,0,2.8-0.3,3.6-1c0.8-0.7,1.2-1.7,1.2-3.1c0-1.4-0.4-2.4-1.2-3.1
			c-0.8-0.7-2-1-3.6-1L47.3,29.5 M44,26.5h8.4c2.5,0,4.4,0.6,5.8,1.7c1.4,1.2,2,2.8,2,4.9c0,1.7-0.3,3-1,3.9c-0.7,1-1.7,1.6-3.1,1.8
			c1.6,0.4,2.9,1.2,3.8,2.4c0.9,1.2,1.3,2.7,1.3,4.6c0,2.4-0.7,4.3-2.2,5.6c-1.5,1.3-3.6,2-6.3,2H44v-6.7h-3.1v-2.6H44L44,26.5"/>
	</g>
	<g>
		<path d="M13.8,34.6l0.1,2.1c1.4-1.6,3.3-2.4,5.6-2.4c2.6,0,4.4,1,5.4,3c0.6-0.9,1.4-1.6,2.5-2.2s2.2-0.8,3.6-0.8
			c4.1,0,6.3,2.2,6.3,6.6v12.7H34V41c0-1.4-0.3-2.4-0.9-3c-0.6-0.7-1.7-1-3.1-1c-1.2,0-2.2,0.4-3,1.1c-0.8,0.7-1.3,1.7-1.4,2.9v12.6
			h-3.3V41.1c0-2.8-1.3-4.1-4-4.1c-2.1,0-3.6,0.9-4.4,2.7v13.8h-3.2V34.6H13.8z"/>
	</g>
</g>
</svg>
