<?xml version="1.0" standalone="no"?>
<!DOCTYPE svg PUBLIC "-//W3C//DTD SVG 1.1//EN" "http://www.w3.org/Graphics/SVG/1.1/DTD/svg11.dtd" >
<svg xmlns="http://www.w3.org/2000/svg">
<metadata>Generated by IcoMoon</metadata>
<defs>
<font id="icomoon" horiz-adv-x="1024">
<font-face units-per-em="1024" ascent="960" descent="-64" />
<missing-glyph horiz-adv-x="1024" />
<glyph unicode="&#x20;" horiz-adv-x="512" d="" />
<glyph unicode="&#xe900;" glyph-name="add" d="M960.030 508.235h-387.795v387.735c0 33.25-26.925 60.235-60.235 60.235s-60.235-26.985-60.235-60.235v-387.735h-387.735c-33.31 0-60.235-26.925-60.235-60.235s26.925-60.235 60.235-60.235h387.735v-387.795c0-33.31 26.925-60.235 60.235-60.235s60.235 26.925 60.235 60.235v387.795h387.795c33.31 0 60.235 26.925 60.235 60.235s-26.985 60.235-60.235 60.235z" />
<glyph unicode="&#xe901;" glyph-name="arrow" horiz-adv-x="1536" d="M1438.208 829.44c-66.731 66.731-174.592 66.731-241.323 0l-428.885-428.885-428.885 428.885c-66.731 66.731-174.592 66.731-241.323 0-66.731-66.56-66.731-174.592 0-241.323l502.443-502.613c46.251-46.080 106.837-68.779 167.424-68.779 60.757 0 121.685 23.040 168.107 69.12l502.101 502.272c66.901 66.56 66.901 174.763 0.341 241.323z" />
<glyph unicode="&#xe902;" glyph-name="bitcoin" d="M582.656 581.734l-87.211 20.378-27.477-117.487 87.211-20.378c32.461-7.578 64.887 12.527 72.465 45.022 7.612 32.358-12.527 64.887-44.988 72.465zM571.221 404.105l-115.746 27.068-27.477-117.521 115.746-27.068c32.393-7.578 64.887 12.595 72.465 45.022 7.612 32.495-12.595 64.922-44.988 72.499zM628.531 946.449c-275.285 64.341-550.605-106.633-614.98-381.918s106.633-550.605 381.918-614.98c275.285-64.375 550.605 106.633 614.98 381.918 64.341 275.285-106.633 550.605-381.918 614.98zM740.625 494.080c-7.168-30.618-23.347-56.593-44.544-75.435 27.034-31.266 39.083-76.288 28.365-121.685-16.998-72.738-85.777-118.818-153.566-102.98l-48.094 11.23-24.166-103.287c-1.365-5.871-7.27-9.523-13.141-8.158l-35.601 8.329c-5.871 1.365-9.557 7.27-8.158 13.141l24.166 103.287-56.969 13.312-24.166-103.287c-1.365-5.871-7.27-9.523-13.141-8.158l-35.567 8.329c-5.871 1.365-9.626 7.27-8.26 13.175l24.166 103.287-111.889 26.146c-6.554 1.536-10.206 8.67-7.441 14.848l15.326 34.748c2.014 4.506 6.724 6.929 11.571 6.315 34.304-4.642 55.194 15.428 62.157 45.124l51.61 220.74c7.714 33.075-7.441 65.024-46.694 78.097-5.325 1.775-8.329 7.509-7.066 12.971l8.431 36.011c1.365 5.871 7.27 9.557 13.141 8.158l117.487-27.477 24.132 103.253c1.365 5.871 7.27 9.523 13.175 8.158l35.567-8.329c5.871-1.365 9.523-7.27 8.158-13.141l-24.201-103.253 56.969-13.312 24.132 103.253c1.365 5.871 7.27 9.523 13.141 8.158l35.703-8.329c5.871-1.365 9.523-7.27 8.158-13.141l-24.098-103.253 19.558-4.574c67.789-15.872 108.885-88.508 91.648-162.27z" />
<glyph unicode="&#xe903;" glyph-name="arrows" horiz-adv-x="614" d="M478.754 270.643l-171.554-171.622-171.554 171.554c-26.692 26.692-69.837 26.692-96.529 0-26.692-26.624-26.692-69.837 0-96.529l200.977-201.045c18.5-18.432 42.735-27.511 66.97-27.511 24.303 0 48.674 9.216 67.243 27.648l200.841 200.909c26.692 26.692 26.692 69.905 0 96.529-26.556 26.692-69.769 26.692-96.393 0.068zM135.646 625.357l171.554 171.622 171.554-171.554c26.692-26.692 69.837-26.692 96.529 0 26.692 26.624 26.692 69.837 0 96.529l-201.045 201.045c-18.5 18.432-42.735 27.511-66.97 27.511-24.303 0-48.674-9.216-67.243-27.648l-200.909-200.909c-26.692-26.692-26.692-69.905 0-96.529 26.692-26.692 69.905-26.692 96.529-0.068z" />
<glyph unicode="&#xe904;" glyph-name="email" horiz-adv-x="1350" d="M1340.23 817.431v34.863c0 47.337-38.493 85.83-85.83 85.83h-1158.982c-47.337 0-85.83-38.493-85.83-85.83v-808.588c0-47.337 38.493-85.83 85.83-85.83h1158.982c47.337 0 85.83 38.493 85.83 85.83v773.725zM1247.139 50.967h-1144.46v675.747l550.307-293.702c6.842-3.677 14.383-5.492 21.923-5.492s15.034 1.815 21.923 5.492l550.307 293.702v-675.747zM1247.139 832.279l-572.23-305.431-572.23 305.431v12.753h1144.46v-12.753z" />
<glyph unicode="&#xe905;" glyph-name="help" d="M512 941.45c-272.108 0-493.489-221.342-493.489-493.45 0-272.069 221.381-493.45 493.489-493.45 272.069 0 493.45 221.381 493.45 493.45 0.039 272.108-221.342 493.45-493.45 493.45zM512 33.319c-228.667 0-414.72 186.014-414.72 414.681s186.053 414.681 414.72 414.681c228.667 0 414.72-186.014 414.72-414.681s-186.053-414.681-414.72-414.681zM512 728.576c-80.069 0-145.211-65.103-145.211-145.172 0-21.74 17.605-39.385 39.385-39.385s39.385 17.644 39.385 39.385c0 36.588 29.814 66.402 66.442 66.402s66.402-29.775 66.402-66.402c0-8.743-6.144-16.975-22.41-36.51-26.821-32.256-67.387-81.014-82.865-181.406-3.308-21.465 11.422-41.63 32.926-44.938 2.048-0.315 4.057-0.473 6.026-0.473 19.102 0 35.879 13.942 38.873 33.398 12.209 78.809 40.566 112.916 65.615 143.006 19.968 24.025 40.606 48.837 40.606 86.922 0 80.069-65.103 145.172-145.172 145.172zM551.385 246.193c0-21.752-17.633-39.385-39.385-39.385s-39.385 17.633-39.385 39.385c0 21.752 17.633 39.385 39.385 39.385s39.385-17.633 39.385-39.385z" />
<glyph unicode="&#xe906;" glyph-name="key" d="M226.068-45.489h-168.172c-21.74 0-39.385 17.644-39.385 39.385v168.172c0 10.437 4.135 20.48 11.5 27.845l336.896 337.054c-8.192 32.492-12.052 61.282-12.052 89.206 0 179.397 145.92 325.317 325.317 325.317s325.317-145.92 325.317-325.317-145.92-325.317-325.317-325.317c-29.775 0-59.865 3.978-89.758 11.855l-134.617-134.774c-7.404-7.404-17.408-11.54-27.884-11.54h-61.637v-61.44c0-21.74-17.644-39.385-39.385-39.385h-61.44v-61.637c0-21.78-17.605-39.424-39.385-39.424zM97.28 33.28h89.403v61.637c0 21.74 17.644 39.385 39.385 39.385h61.44v61.44c0 21.74 17.644 39.385 39.385 39.385h84.677l139.697 139.855c10.594 10.594 26.27 14.178 40.369 9.531 29.972-10.004 58.919-14.887 88.537-14.887 135.916 0 246.548 110.592 246.548 246.548s-110.631 246.548-246.548 246.548c-135.956 0-246.548-110.592-246.548-246.548 0-26.466 4.805-54.942 15.124-89.561 4.096-13.863 0.315-28.83-9.886-39.070l-341.583-341.78v-112.482zM680.172 475.963c-78.73 0-140.406 61.558-140.406 140.209 0 78.73 61.676 140.406 140.406 140.406 78.612 0 140.209-61.676 140.209-140.406-0.039-78.612-61.598-140.209-140.209-140.209zM680.172 677.809c-35.131 0-61.637-26.506-61.637-61.637 0-35.604 25.915-61.44 61.637-61.44 35.604 0 61.44 25.836 61.44 61.44-0.039 35.722-25.836 61.637-61.44 61.637z" />
<glyph unicode="&#xe907;" glyph-name="password" horiz-adv-x="985" d="M492.308 723.692c-95.035 0-172.386-76.13-172.386-169.748 0-43.796 16.66-84.834 46.474-115.988-13.391-52.539-31.193-126.385-35.289-162.777-2.836-25.797 5.238-50.846 22.804-70.538 18.353-20.559 44.859-32.335 72.625-32.335h131.584c27.806 0 54.272 11.815 72.665 32.414 17.605 19.732 25.679 44.78 22.764 70.538-4.057 36.116-21.898 110.041-35.289 162.737 29.814 31.153 46.474 72.192 46.474 115.988-0.039 93.578-77.391 169.708-172.426 169.708zM536.025 441.305c21.583-82.865 36.234-148.244 39.227-174.907 0.354-3.348-0.709-6.38-3.269-9.255-3.387-3.86-8.468-6.065-13.863-6.065h-131.584c-5.396 0-10.516 2.245-13.942 6.065-2.56 2.875-3.623 5.947-3.23 9.295 2.993 26.821 17.644 92.16 39.188 174.868l6.617 25.364-20.834 15.872c-22.646 17.25-35.643 43.284-35.643 71.404 0 50.176 41.984 90.978 93.617 90.978s93.617-40.802 93.617-90.978c0-28.121-12.997-54.154-35.643-71.404l-20.834-15.872 6.577-25.364zM812.386 941.489h-640.197c-91.49 0-165.927-75.225-165.927-167.66v-651.579c0-92.475 74.437-167.66 165.927-167.66h640.197c91.49 0 165.967 75.225 165.967 167.7v651.5c0 92.475-74.476 167.7-165.967 167.7zM899.584 122.21c0-49.034-39.109-88.93-87.198-88.93h-640.197c-48.049 0-87.158 39.897-87.158 88.891v651.618c0 49.034 39.109 88.891 87.158 88.891h640.197c48.089 0 87.198-39.897 87.198-88.891v-651.579z" />
<glyph unicode="&#xe908;" glyph-name="star" horiz-adv-x="1063" d="M782.612-45.489c-17.526 0-34.383 4.214-50.058 12.564l-200.822 105.551-200.862-105.63c-43.126-22.843-100.746-11.461-132.293 25.994-20.559 24.379-28.948 55.296-23.552 87.079l38.4 223.823-162.54 158.366c-29.42 28.711-39.857 70.814-27.294 110.001 12.721 39.345 45.962 67.308 86.843 73.177l224.571 32.65 100.391 203.54c18.393 36.943 55.257 59.865 96.335 59.865 41.236 0 78.139-22.961 96.335-59.904l100.391-203.5 224.61-32.65c40.684-5.829 73.925-33.831 86.686-73.058 12.642-39.109 2.284-81.25-27.018-110.001l-162.658-158.444 38.4-223.744c5.435-31.823-2.954-62.779-23.552-87.198-20.559-24.418-50.53-38.479-82.314-38.479zM531.653 152.537c11.225 0 22.331-2.678 32.177-7.759l205.509-107.993c12.603-6.656 26.742-3.269 35.289 6.971 5.553 6.577 7.641 14.572 6.183 23.198l-39.188 228.51c-3.899 22.331 3.505 45.292 19.81 61.322l166.203 161.95c7.877 7.719 10.594 18.747 7.168 29.381-3.426 10.555-12.012 17.802-23.001 19.377l-229.573 33.319c-22.764 3.466-42.181 17.644-52.224 37.927l-102.597 207.99c-9.728 19.771-41.433 19.85-51.397-0.118l-102.518-207.833c-10.201-20.559-29.775-34.737-52.382-37.967l-229.376-33.359c-11.106-1.575-19.732-8.822-23.119-19.377-3.426-10.634-0.709-21.622 7.247-29.42l166.046-161.792c16.423-16.187 23.788-39.109 19.929-61.479l-39.188-228.51c-1.457-8.586 0.67-16.62 6.105-23.079 8.35-9.846 24.025-13.115 35.367-7.089l205.233 107.914c9.846 5.159 20.992 7.916 32.295 7.916z" />
<glyph unicode="&#xe909;" glyph-name="search" d="M904.586 840.468c-65.142 65.142-151.749 100.982-243.83 100.982s-178.727-35.879-243.83-100.982c-65.182-65.142-101.061-151.749-101.061-243.87 0-78.848 26.427-153.521 74.87-214.292l-360.606-360.566c-15.399-15.399-15.399-40.29 0-55.69 7.68-7.68 17.762-11.54 27.845-11.54s20.165 3.86 27.845 11.54l360.606 360.566c60.77-48.404 135.444-74.87 214.292-74.87 92.121 0 178.688 35.879 243.83 100.982 134.459 134.498 134.459 353.28 0.039 487.739zM848.896 408.458c-50.255-50.255-117.090-77.942-188.14-77.942s-137.925 27.687-188.14 77.942c-50.255 50.255-77.942 117.090-77.942 188.14s27.648 137.886 77.942 188.14c50.215 50.255 117.090 77.942 188.14 77.942s137.886-27.687 188.14-77.942c103.7-103.7 103.7-272.542 0-376.281z" />
<glyph unicode="&#xe90a;" glyph-name="arrow-top" horiz-adv-x="964" d="M481.882 956.205c-0.181 0-0.361-0.12-0.542-0.12-28.070-0.12-56.139-10.842-77.523-32.226l-376.832-376.772c-23.552-23.552-23.552-61.621 0-85.173s61.621-23.552 85.173 0l309.489 309.429v-771.373c0-33.31 26.985-60.235 60.235-60.235s60.235 26.925 60.235 60.235v771.373l309.489-309.489c23.552-23.552 61.621-23.552 85.173 0 11.746 11.746 17.649 27.166 17.649 42.586s-5.903 30.84-17.649 42.586l-376.832 376.832c-21.384 21.384-49.393 32.105-77.523 32.226-0.181 0.060-0.301 0.12-0.542 0.12z" />
<glyph unicode="&#xe90b;" glyph-name="settings" d="M926.169 582.144l-40.684 6.932c-2.954 7.798-6.144 15.518-9.531 23.079l23.985 33.556c27.215 38.321 22.843 90.112-10.358 122.959l-56.556 56.556c-32.335 32.374-86.567 36.47-122.762 10.319l-33.634-23.985c-8.428 3.82-16.935 7.326-25.442 10.476l-6.695 39.739c-7.798 46.159-47.419 79.675-94.247 79.675h-79.872c-46.828 0-86.489-33.556-94.247-79.636l-7.089-41.551c-7.759-2.993-15.399-6.223-23.001-9.689l-32.886 23.71c-36.943 26.545-91.687 21.858-123.116-10.161l-56.753-56.596c-33.122-33.122-37.455-84.834-10.319-122.959l24.458-34.343c-3.387-7.601-6.538-15.399-9.452-23.237l-39.66-6.695c-46.238-7.759-79.793-47.419-79.793-94.247v-79.872c0-46.789 33.516-86.41 79.636-94.208l41.59-7.129c2.993-7.759 6.223-15.439 9.728-23.001l-23.631-32.886c-27.294-38.321-22.922-90.073 10.319-122.959l56.556-56.596c32.335-32.217 86.213-36.588 122.762-10.279l34.343 24.418c6.892-3.033 13.942-5.908 21.11-8.665l6.774-40.684c7.759-46.159 47.419-79.675 94.247-79.675h80.069c46.868 0 86.489 33.556 94.247 79.636l6.892 40.684c7.798 2.954 15.557 6.144 23.158 9.531l33.28-23.788c36.588-26.506 90.9-22.213 123.195 10.161l56.596 56.556c33.083 33.122 37.376 84.834 10.279 122.959l-23.985 33.634c3.505 7.68 6.695 15.399 9.61 23.079l40.606 6.774c46.198 7.798 79.714 47.419 79.714 94.287v79.36c0.512 47.143-32.886 86.961-79.439 94.759zM926.681 408.064c0-8.231-5.908-15.242-13.942-16.581l-87.867-14.612-7.089-23.434c-5.474-18.078-13.154-36.588-22.804-54.981l-11.225-21.386 51.633-72.468c4.726-6.695 3.978-15.754-1.851-21.622l-56.596-56.556c-5.79-5.79-14.966-6.577-21.504-1.851l-72.31 51.712-21.504-11.382c-17.447-9.177-35.998-16.857-55.099-22.725l-23.158-7.168-14.887-87.788c-1.339-8.074-8.31-13.942-16.542-13.942h-80.069c-8.231 0-15.202 5.868-16.542 13.942l-14.612 87.749-23.158 7.207c-18.905 5.868-36.864 13.233-53.287 21.898l-21.425 11.303-73.216-52.106c-6.38-4.529-15.478-3.86-21.268 1.93l-56.635 56.674c-5.75 5.711-6.498 14.73-1.812 21.268l51.751 71.995-11.658 21.701c-9.452 17.487-17.211 35.919-23.079 54.705l-7.247 23.001-88.34 15.084c-8.153 1.339-14.021 8.31-14.021 16.542v79.872c0 8.231 5.868 15.202 14.021 16.542l87.119 14.69 7.050 23.434c5.79 19.22 13.312 37.73 22.41 55.060l11.225 21.425-51.988 73.019c-4.766 6.695-3.978 15.754 1.812 21.543l57.029 56.832c5.317 5.514 15.006 6.183 21.11 1.772l72.153-51.948 21.701 11.658c17.566 9.452 35.998 17.25 54.745 23.079l23.040 7.207 15.045 88.379c1.378 8.113 8.35 13.982 16.581 13.982h79.872c8.231 0 15.202-5.908 16.542-14.021l14.69-87.158 23.513-7.010c19.298-5.79 38.518-13.666 56.95-23.434l21.465-11.382 72.783 51.791c6.302 4.49 15.36 3.742 21.15-2.009l56.674-56.674c5.75-5.711 6.459-14.769 1.733-21.386l-51.712-72.31 11.382-21.504c9.137-17.369 16.857-35.919 22.804-55.099l7.207-23.079 87.67-14.887c7.995-1.339 13.745-8.074 13.627-16.542v-79.951zM512 641.654c-106.772 0-193.654-86.882-193.654-193.654s86.882-193.654 193.654-193.654c106.772 0 193.615 86.882 193.615 193.654s-86.843 193.654-193.615 193.654zM512 333.115c-63.33 0-114.885 51.554-114.885 114.885s51.554 114.885 114.885 114.885c63.291 0 114.846-51.515 114.846-114.885s-51.515-114.885-114.846-114.885z" />
<glyph unicode="&#xe90c;" glyph-name="str_close" d="M512 941.489c-272.108 0-493.489-221.381-493.489-493.489s221.381-493.489 493.45-493.489c272.108 0 493.489 221.381 493.489 493.489 0.039 272.108-221.342 493.489-493.45 493.489zM512 33.28c-228.667 0-414.72 186.053-414.72 414.72s186.053 414.72 414.72 414.72c228.706 0 414.72-186.053 414.72-414.681 0-228.706-186.053-414.759-414.72-414.759zM650.043 515.23l-138.043-138.043-138.043 138.043c-15.399 15.399-40.29 15.399-55.69 0s-15.399-40.29 0-55.69l151.631-151.631c11.618-11.618 26.86-17.408 42.102-17.408s30.484 5.79 42.102 17.408l151.67 151.631c15.399 15.36 15.399 40.29 0 55.69s-40.33 15.399-55.729 0z" />
<glyph unicode="&#xe90d;" glyph-name="str_open" d="M512 941.489c-272.108 0-493.489-221.381-493.489-493.489s221.381-493.489 493.489-493.489c272.069 0 493.45 221.381 493.45 493.45 0.039 272.148-221.342 493.529-493.45 493.529zM705.733 380.77c-15.399-15.399-40.29-15.399-55.69 0l-138.043 138.043-138.082-138.043c-15.399-15.399-40.29-15.399-55.69 0s-15.399 40.33 0 55.69l151.67 151.631c11.618 11.618 26.86 17.408 42.102 17.408s30.484-5.79 42.102-17.408l151.631-151.631c15.399-15.399 15.399-40.33 0-55.69z" />
<glyph unicode="&#xe90e;" glyph-name="update" horiz-adv-x="1161" d="M1130.086 595.866c-29.764 23.347-72.567 18.022-95.778-11.674l-37.274-47.582c-41.984 233.813-246.511 411.921-492.203 411.921-276.002 0-500.531-224.529-500.531-500.531s224.529-500.531 500.531-500.531c37.751 0 68.267 30.583 68.267 68.267s-30.515 68.267-68.267 68.267c-200.704 0-363.998 163.294-363.998 363.998s163.294 363.998 363.998 363.998c175.036 0 321.399-124.177 356.079-289.041l-44.305 34.679c-29.628 23.142-72.567 18.022-95.778-11.674-23.279-29.696-18.091-72.567 11.674-95.846l160.427-125.679c15.974-12.561 35.021-18.637 53.931-18.637 26.010 0 51.746 11.469 69.086 33.519l125.815 160.7c23.279 29.696 17.954 72.567-11.674 95.846z" />
<glyph unicode="&#xe90f;" glyph-name="user" horiz-adv-x="788" d="M744.015 113.546l34.58 1.457-0.236 13.43c-3.505 220.357-39.503 301.647-248.202 345.403 52.263 47.892 86.095 122.407 86.095 206.218 0 71.483 0 261.474-222.247 261.474s-222.208-190.031-222.208-261.514c0-83.81 33.831-158.326 86.095-206.218-206.218-43.52-244.066-126.503-248.044-337.959l-0.866-1.142 0.315-16.542 1.575-39.621h2.757c7.326-14.375 73.216-123.983 380.377-123.983 283.333 0 361.433 93.302 377.58 119.020l5.868 0.039 1.221 39.385-34.658 0.551zM250.565 680.015c0 136.586 36.194 182.705 143.478 182.705s143.478-46.080 143.478-182.705c0-100.746-64.354-182.705-143.478-182.705s-143.478 81.959-143.478 182.705zM28.869 119.572l6.695-0.512-16.030-0.394-10.24-0.039 19.574 0.945zM699.943 109.41c-17.684-18.865-89.285-76.13-305.94-76.13-218.703 0-289.595 58.329-305.979 75.737v10.201l-0.039 3.742c0.315 4.057 0.512 8.074 0.551 11.028 3.466 186.132 19.771 230.558 193.182 264.507 20.126-15.596 56.596-35.328 112.246-35.328 55.69 0 92.16 19.732 112.246 35.328 174.041-34.107 190.306-79.754 193.339-271.321 0.039-3.308 0.118-7.916 0.67-12.997 0.039-0.433 0.079-0.827 0.118-1.26l-0.394-3.505z" />
<glyph unicode="&#xe910;" glyph-name="verify" d="M957.007 487.385c-21.78 0-39.385-17.644-39.385-39.385 0-228.667-186.053-414.681-414.681-414.681-228.706-0.039-414.72 186.014-414.72 414.681s186.053 414.72 414.72 414.72c69.002 0 137.334-17.29 197.632-50.058 19.22-10.319 43.008-3.308 53.406 15.833 10.398 19.102 3.308 43.008-15.793 53.406-71.798 38.991-153.127 59.589-235.244 59.589-272.108 0-493.489-221.381-493.489-493.489s221.381-493.45 493.489-493.45c272.069 0 493.45 221.381 493.45 493.45 0 21.74-17.605 39.385-39.385 39.385zM1003.008 821.563c-15.399 15.399-40.29 15.399-55.69 0l-444.377-444.377-138.082 138.043c-15.399 15.399-40.29 15.399-55.69 0s-15.399-40.33 0-55.69l151.67-151.631c11.618-11.618 26.86-17.408 42.102-17.408s30.484 5.79 42.102 17.408l457.964 457.964c15.399 15.399 15.399 40.29 0 55.69z" />
<glyph unicode="&#xe911;" glyph-name="check" horiz-adv-x="1404" d="M1355.132 910.999c-65.39 65.39-171.085 65.39-236.475 0l-595.368-595.368-237.813 238.147c-65.39 65.39-171.085 65.39-236.475 0s-65.39-171.085 0-236.642l315.579-315.411c43.816-43.816 101.346-65.557 158.876-65.557s115.227 21.908 159.044 65.725l672.632 672.632c65.39 65.39 65.39 171.085 0 236.475z" />
<glyph unicode="&#xe912;" glyph-name="close" d="M627.668 448l372.364 372.364c31.985 31.985 31.985 83.684 0 115.668s-83.684 31.985-115.668 0l-372.364-372.364-372.364 372.364c-31.985 31.985-83.684 31.985-115.668 0s-31.985-83.684 0-115.668l372.364-372.364-372.364-372.364c-31.985-31.985-31.985-83.684 0-115.668 15.951-15.951 36.893-23.968 57.834-23.968s41.883 8.017 57.834 23.968l372.364 372.364 372.364-372.364c15.951-15.951 36.893-23.968 57.834-23.968s41.883 8.017 57.834 23.968c31.985 31.985 31.985 83.684 0 115.668l-372.364 372.364z" />
<glyph unicode="&#xe913;" glyph-name="window" d="M466.58 402.58c7.968-7.968 18.429-11.973 28.891-11.973s20.922 4.005 28.891 11.973l254.498 254.498v-174.406c0-22.557 18.266-40.864 40.864-40.864s40.864 18.307 40.864 40.864v238.97c0 20.636-8.418 39.392-21.985 52.959 0 0 0 0.041 0 0.041-0.041 0.041-0.082 0.041-0.082 0.041-13.567 13.485-32.241 21.862-52.837 21.862h-238.97c-22.557 0-40.864-18.307-40.864-40.864s18.307-40.864 40.864-40.864h174.283l-254.417-254.457c-15.937-15.937-15.937-41.803 0-57.781zM942.273 960h-860.546c-45.073 0-81.727-36.655-81.727-81.727v-451.91c0-22.598 18.307-40.864 40.864-40.864s40.864 18.266 40.864 40.864v451.91h860.546v-860.546h-451.91c-22.557 0-40.864-18.266-40.864-40.864s18.307-40.864 40.864-40.864h451.91c45.073 0 81.727 36.655 81.727 81.727v860.546c0 45.073-36.695 81.727-81.727 81.727zM353.592 344.636h-298.549c-30.362 0-55.043-24.682-55.043-55.043v-298.549c0-30.321 24.682-55.043 55.043-55.043h298.549c30.362 0 55.043 24.682 55.043 55.043v298.549c0 30.362-24.682 55.043-55.043 55.043zM326.908 17.727h-245.181v245.181h245.181v-245.181z" />
<glyph unicode="&#xe914;" glyph-name="arrow-top2" horiz-adv-x="723" d="M688.55 674.786l-249.073 249.073c-18.432 18.432-43.008 28.19-68.186 30.359-3.313 0.542-6.385 1.988-9.879 1.988-3.433 0-6.445-1.385-9.698-1.988-25.299-2.048-49.935-11.866-68.367-30.359l-249.073-249.073c-23.552-23.492-23.552-61.621 0-85.173s61.621-23.552 85.173 0l181.73 181.73v-771.373c0-33.31 26.985-60.235 60.235-60.235 33.31 0 60.235 26.925 60.235 60.235v771.373l181.73-181.73c11.746-11.746 27.166-17.649 42.586-17.649s30.84 5.903 42.586 17.649c23.552 23.552 23.552 61.621 0 85.173z" />
<glyph unicode="&#xe915;" glyph-name="star-filled" horiz-adv-x="1065" d="M792.957-64c-18.184 0-35.674 4.372-51.938 13.035l-208.363 109.473-208.404-109.555c-44.746-23.783-104.529-11.932-137.302 26.929-21.331 25.295-29.994 57.413-24.396 90.431l39.801 232.146-168.603 164.312c-30.484 29.749-41.313 73.432-28.278 114.091 13.24 40.864 47.77 69.877 90.186 75.925l232.922 33.876 104.161 211.142c19.002 38.412 57.25 62.194 99.911 62.194 42.784 0 81.032-23.823 99.911-62.153l104.202-211.142 233.004-33.876c42.212-6.007 76.701-35.061 89.941-75.761 13.117-40.578 2.37-84.302-28.073-114.091l-168.726-164.435 39.801-232.105c5.639-33.059-3.065-65.177-24.477-90.513-21.208-25.335-52.346-39.924-85.282-39.924z" />
<glyph unicode="&#xe916;" glyph-name="settings-filled" d="M512.020 567.179c-65.709 0-119.199-53.45-119.199-119.199s53.49-119.199 119.199-119.199c65.668 0 119.158 53.49 119.158 119.199s-53.49 119.199-119.158 119.199zM941.701 587.202l-42.212 7.192c-3.065 8.091-6.375 16.1-9.889 23.946l24.886 34.816c28.237 39.76 23.701 93.496-10.747 127.576l-58.68 58.68c-33.508 33.549-89.777 37.799-127.331 10.665l-34.897-24.845c-8.745 3.964-17.571 7.601-26.398 10.87l-6.947 41.231c-8.132 47.892-49.241 82.667-97.827 82.667h-82.871c-48.587 0-89.736-34.816-97.746-82.626l-7.355-43.152c-8.050-3.065-16.019-6.416-23.864-10.012l-34.162 24.559c-38.289 27.583-95.090 22.679-127.699-10.502l-58.884-58.721c-34.407-34.366-38.902-88.020-10.747-127.617l25.376-35.592c-3.514-7.928-6.783-15.978-9.807-24.11l-41.19-6.947c-47.892-8.091-82.708-49.2-82.708-97.787v-82.871c0-48.546 34.775-89.655 82.626-97.746l43.152-7.396c3.106-8.050 6.456-16.019 10.093-23.864l-24.518-34.121c-28.318-39.76-23.783-93.455 10.706-127.576l58.68-58.721c33.549-33.426 89.45-37.962 127.372-10.665l35.633 25.335c7.151-3.146 14.466-6.13 21.903-8.99l7.029-42.212c8.050-47.892 49.2-82.667 97.787-82.667h83.076c48.628 0 89.736 34.816 97.787 82.626l7.151 42.212c8.091 3.065 16.141 6.375 24.028 9.889l34.53-24.682c37.962-27.501 94.313-23.047 127.821 10.543l58.721 58.68c34.325 34.366 38.78 88.020 10.665 127.576l-24.886 34.897c3.637 7.968 6.947 15.978 9.971 23.946l42.13 7.029c47.933 8.091 82.708 49.2 82.708 97.827v82.299c0.531 48.914-34.121 90.268-82.463 98.359zM512.020 247.094c-110.781 0-200.926 90.145-200.926 200.926s90.145 200.926 200.926 200.926c110.781 0 200.885-90.145 200.885-200.926s-90.104-200.926-200.885-200.926z" />
<glyph unicode="&#xe917;" glyph-name="help-filled" d="M512.020 960c-282.326 0-512.020-229.694-512.020-511.98s229.694-511.98 512.020-511.98c282.285 0 511.98 229.694 511.98 511.98 0.041 282.285-229.694 511.98-511.98 511.98zM512.020 197.772c-22.557 0-40.864 18.307-40.864 40.864s18.307 40.864 40.864 40.864c22.557 0 40.864-18.307 40.864-40.864 0-22.598-18.307-40.864-40.864-40.864zM620.513 498.364c-25.989-31.22-55.411-66.608-68.079-148.376-3.106-20.187-20.514-34.652-40.332-34.652-2.084 0-4.168 0.163-6.252 0.49-22.312 3.433-37.594 24.355-34.162 46.625 16.1 104.161 58.19 154.75 85.977 188.218 16.877 20.268 23.251 28.809 23.251 37.881 0 37.962-30.893 68.896-68.896 68.896s-68.937-30.893-68.937-68.896c0-22.557-18.266-40.864-40.864-40.864s-40.864 18.307-40.864 40.864c0 83.035 67.547 150.623 150.664 150.623 83.035 0 150.623-67.547 150.623-150.623 0-39.515-21.453-65.3-42.13-90.186z" />
<glyph unicode="&#xe918;" glyph-name="star2" horiz-adv-x="1113" d="M1112.979 582.894l-333.492-250.735 115.42-382.096-341.917 220.405-345.935-234.468 122.159 386.957-329.215 237.255 417.48 18.794 142.379 380.995 135.769-375.357 417.351-1.75z" />
<glyph unicode="&#xe919;" glyph-name="rocket" d="M643.111 448.118c-34.58 0-67.111 13.47-91.53 37.888-24.458 24.418-37.927 56.911-37.927 91.53s13.47 67.151 37.967 91.569c48.719 48.798 134.105 48.916 182.981-0.039 50.452-50.452 50.452-132.569 0-183.020-24.418-24.458-56.911-37.927-91.49-37.927zM643.111 628.224c-13.548 0-26.27-5.278-35.84-14.809-9.57-9.61-14.848-22.292-14.848-35.84s5.278-26.27 14.848-35.84c19.141-19.141 52.5-19.141 71.641 0 19.771 19.771 19.771 51.909 0 71.68-9.57 9.531-22.292 14.809-35.801 14.809zM572.377 29.538c-8.034 0-15.833 1.575-23.237 4.647-17.329 7.326-30.366 22.489-35.013 40.566l-18.511 72.783-20.165-7.404c-43.953-16.148-95.744-4.608-128.63 28.278l-112.955 112.916c-33.595 33.634-44.662 84.086-28.278 128.63l7.404 20.126-72.743 18.511c-18.156 4.647-33.359 17.723-40.566 35.013-7.207 17.014-5.986 36.982 3.348 53.248 18.038 30.996 39.975 59.471 65.26 84.795 73.216 73.216 173.45 116.618 276.913 120.281l57.186 65.812c46.671 46.631 106.338 84.283 170.772 107.126l5.671 1.812c9.137 3.269 21.071 6.932 33.162 10.043 77.273 19.929 159.823 19.574 236.78-0.945 20.716-5.593 36.982-21.858 42.535-42.496 20.677-77.391 20.992-159.271 0.945-236.78-3.072-12.091-6.735-24.025-10.831-35.761l-2.048-5.553c-20.165-56.95-53.602-112.010-96.414-158.208v-0.433l-17.566-16.778-57.935-49.979c-3.663-103.542-46.907-203.579-120.32-276.992-25.442-25.442-53.918-47.38-84.638-65.142-9.216-5.317-19.614-8.113-30.129-8.113zM550.4 251.668l33.713-132.49c16.817 11.54 32.65 24.734 47.301 39.385 62.897 62.897 98.422 150.055 97.477 239.065l-0.197 18.353 75.461 64.827 15.911 14.415c38.046 39.385 67.742 87.316 86.055 138.87 4.214 12.209 7.286 22.095 9.846 32.098 15.754 60.928 16.384 125.046 1.89 186.171-60.77 14.454-125.519 13.785-186.171-1.851-9.964-2.599-19.889-5.671-29.696-9.019-55.926-19.81-105.472-51.082-145.762-91.254l-74.752-87.040-18.353 0.197c-0.039 0-0.079 0-0.079 0-91.294 0-177.073-35.525-238.986-97.438-14.572-14.572-27.766-30.405-39.345-47.34l132.49-33.713-37.652-102.124c-5.829-15.793-1.89-33.753 10.082-45.726l112.916-112.916c11.658-11.618 30.050-15.793 45.726-10.043l102.124 37.573zM120.005 139.264c-10.082 0-20.165 3.86-27.845 11.54-15.399 15.36-15.399 40.29 0 55.69l66.836 66.875c15.399 15.399 40.29 15.399 55.69 0 15.399-15.36 15.399-40.29 0-55.69l-66.836-66.875c-7.68-7.68-17.762-11.54-27.845-11.54zM56.32-45.41c-10.082 0-20.165 3.86-27.845 11.54-15.399 15.399-15.399 40.29 0 55.69l191.055 191.055c15.399 15.399 40.29 15.399 55.69 0s15.399-40.29 0-55.69l-191.055-191.055c-7.68-7.719-17.762-11.54-27.845-11.54zM218.703-10.398c-10.082 0-20.165 3.86-27.845 11.54-15.399 15.399-15.399 40.29 0 55.69l92.357 92.357c15.399 15.399 40.29 15.399 55.69 0s15.399-40.29 0-55.69l-92.357-92.357c-7.68-7.68-17.762-11.54-27.845-11.54z" />
<glyph unicode="&#xe91a;" glyph-name="cube" horiz-adv-x="945" d="M472.615-64c-5.553 0-11.106 1.142-16.305 3.545l-433.231 196.923c-14.060 6.38-23.079 20.362-23.079 35.84v551.385c0 13.391 6.814 25.876 18.038 33.122 11.303 7.207 25.482 8.231 37.652 2.718l433.231-196.923c14.060-6.38 23.079-20.401 23.079-35.84v-551.385c0-13.391-6.814-25.836-18.078-33.122-6.459-4.135-13.863-6.262-21.307-6.262zM78.769 197.671l354.462-161.122v464.857l-354.462 161.122v-464.857zM472.615-64c-7.444 0-14.848 2.127-21.346 6.262-11.225 7.286-18.038 19.732-18.038 33.122v551.385c0 15.439 9.019 29.46 23.079 35.84l433.231 196.923c12.209 5.514 26.388 4.49 37.612-2.718 11.264-7.247 18.078-19.732 18.078-33.122v-551.385c0-15.478-9.019-29.46-23.079-35.84l-433.231-196.923c-5.199-2.402-10.752-3.545-16.305-3.545zM512 501.406v-464.857l354.462 161.122v464.857l-354.462-161.122zM39.385 684.308c-14.927 0-29.263 8.586-35.84 23.079-9.019 19.81-0.276 43.166 19.535 52.145l433.231 196.923c19.692 9.019 43.126 0.276 52.145-19.574 9.019-19.771 0.276-43.126-19.574-52.145l-433.231-196.923c-5.238-2.363-10.791-3.505-16.266-3.505zM905.807 684.308c-5.435 0-10.949 1.142-16.266 3.545l-433.231 196.923c-19.81 9.019-28.554 32.335-19.574 52.145 9.019 19.81 32.453 28.514 52.145 19.574l433.231-196.923c19.81-9.019 28.554-32.335 19.535-52.145-6.538-14.533-20.834-23.119-35.84-23.119z" />
<glyph unicode="&#xe91b;" glyph-name="arrows2" d="M910.73 347.687c-12.012 0-23.591 3.663-33.477 10.594l-319.134 227.998c-16.935 11.973-26.151 32.335-23.946 53.051 1.575 16.030 9.964 30.641 22.686 40.29-102.479 22.646-212.874-12.524-283.687-90.033-20.401-22.292-57.935-24.458-80.817-4.647l-104.921 91.018c-11.658 10.043-18.786 24.261-19.889 39.936-0.985 15.754 4.45 31.232 14.887 42.732 104.606 116.185 254.346 182.863 410.703 182.863 129.812 0 254.425-45.371 353.753-128.315l77.706 35.328c18.156 8.428 40.802 6.38 57.541-5.474 17.014-12.249 26.151-32.453 24.103-52.972l-37.809-389.986c-2.048-20.519-14.887-38.558-33.595-47.104-7.68-3.545-15.754-5.278-24.103-5.278zM633.265 629.406l260.254-185.935 30.838 318.385-91.687-41.748-19.22 17.644c-87.749 80.581-201.492 124.928-320.315 124.928-127.055 0-248.911-51.279-337.723-141.43l73.689-63.921c70.183 68.884 165.297 108.032 264.034 108.032 63.646 0 126.858-16.423 182.823-47.537l68.254-37.927-110.946-50.491zM530.865-45.489c-129.812 0-254.425 45.41-353.753 128.354l-77.706-35.328c-18.432-8.468-40.96-6.341-57.698 5.632-16.857 12.13-25.994 32.335-23.946 52.815l37.849 389.986c1.93 20.441 14.809 38.558 33.634 47.143 18.55 8.507 41.236 6.341 57.935-5.75l318.74-227.564c16.699-11.934 25.876-32.098 23.985-52.618-1.654-16.384-10.043-31.114-22.764-40.763 102.321-22.489 212.795 12.564 283.687 90.033 20.48 22.292 58.053 24.418 80.857 4.608l104.881-90.978c11.697-10.043 18.826-24.261 19.929-39.897 0.945-15.675-4.411-31.114-14.69-42.575-104.842-116.382-254.582-183.099-410.939-183.099zM191.291 175.892l19.22-17.644c87.749-80.581 201.492-124.967 320.315-124.967 127.015 0 248.871 51.279 337.723 141.43l-73.728 63.961c-70.183-68.923-165.297-108.032-263.995-108.032-63.606 0-126.858 16.423-182.823 47.577l-68.254 37.927 110.986 50.491-260.254 185.856-30.878-318.306 91.687 41.708z" />
<glyph unicode="&#xe91c;" glyph-name="funds" horiz-adv-x="1479" d="M739.556 385.536c354.19 0 712.761 98.020 712.761 285.298s-358.571 285.241-712.761 285.241-712.761-98.020-712.761-285.298 358.571-285.241 712.761-285.241zM739.556 842.297c387.584 0 598.983-113.323 598.983-171.52s-211.399-171.463-598.983-171.463-598.983 113.266-598.983 171.463 211.399 171.52 598.983 171.52zM1444.921 426.496c-4.153-10.297-13.71-23.836-29.127-36.693-14.848-13.426-37.262-24.86-62.635-36.978-26.795-10.524-57.23-20.878-91.705-29.696-34.361-8.818-72.42-16.1-112.811-22.812-40.334-6.827-83.57-10.98-128.057-16.156-44.601-4.949-91.022-6.087-138.012-9.557-23.268-0.853-46.763-1.707-70.315-2.56l-73.671-0.284c-46.137-0.341-95.403 0.455-142.108 2.844-46.99 3.243-93.468 4.608-138.069 9.5-44.43 5.177-87.723 9.216-128.057 16.1-40.391 6.77-78.45 13.938-112.811 22.812-34.532 8.818-64.967 19.172-91.705 29.753-25.316 12.117-47.787 23.552-62.578 37.035-15.474 13.312-24.462 25.031-29.013 36.466-3.812 11.036-5.803 16.953-5.803 16.953s-0.114-6.258-0.284-17.92c0.228-10.524 4.836-31.46 17.977-50.119 12.402-20.025 32.484-40.050 57.799-59.79 25.714-18.432 56.206-37.831 91.364-53.476 69.803-33.166 155.705-59.335 249.060-76.8 46.763-8.192 95.175-16.156 144.782-20.082 50.005-3.868 99.044-6.087 151.324-6.997l73.728 2.162c25.372 1.593 50.688 3.186 75.776 4.779 49.607 3.698 98.076 11.833 144.782 20.025 93.355 17.408 179.314 43.634 249.060 76.8 35.214 15.644 65.707 35.044 91.364 53.532 25.316 19.74 45.397 39.765 57.799 59.847 13.255 19.172 17.294 38.286 17.92 49.948-0.114 11.776-0.228 18.091-0.228 18.091s-1.991-5.803-5.746-16.725zM1444.921 208.384c-4.153-10.297-13.71-23.836-29.127-36.693-14.848-13.426-37.262-24.86-62.635-36.978-26.795-10.524-57.23-20.878-91.705-29.696-34.361-8.818-72.42-16.1-112.811-22.812-40.334-6.827-83.57-10.98-128.057-16.156-44.601-4.949-91.022-6.087-138.012-9.557-23.268-0.853-46.763-1.707-70.315-2.56l-73.671-0.284c-46.137-0.341-95.403 0.455-142.108 2.844-46.99 3.243-93.468 4.608-138.069 9.5-44.43 5.177-87.723 9.216-128.057 16.1-40.391 6.77-78.45 13.938-112.811 22.812-34.532 8.818-64.967 19.172-91.705 29.753-25.316 12.117-47.787 23.552-62.578 37.035-15.474 13.369-24.519 25.088-29.070 36.523-3.755 11.036-5.746 16.953-5.746 16.953s-0.114-6.258-0.284-17.92c0.228-10.524 4.836-31.46 17.977-50.119 12.402-20.025 32.484-40.050 57.799-59.79 25.714-18.432 56.206-37.888 91.364-53.476 69.803-33.166 155.705-59.335 249.060-76.8 46.763-8.192 95.175-16.156 144.782-20.082 50.005-3.868 99.044-6.087 151.324-6.997l73.728 2.162c25.372 1.593 50.688 3.186 75.776 4.779 49.607 3.698 98.076 11.833 144.782 20.025 93.355 17.408 179.314 43.634 249.060 76.8 35.214 15.644 65.707 35.044 91.364 53.532 25.316 19.74 45.397 39.765 57.799 59.847 13.255 19.172 17.294 38.286 17.92 49.948-0.171 11.833-0.284 18.148-0.284 18.148s-1.934-5.86-5.689-16.839z" />
<glyph unicode="&#xe91d;" glyph-name="chart" horiz-adv-x="887" d="M129.245 412.243h-112.142c-7.638 0-13.838-6.199-13.838-13.838v-448.567c0-7.638 6.199-13.838 13.838-13.838h112.142c7.638 0 13.838 6.199 13.838 13.838v448.567c0 7.583-6.199 13.838-13.838 13.838zM332.772 486.967h-112.142c-7.638 0-13.838-6.199-13.838-13.838v-523.292c0-7.638 6.199-13.838 13.838-13.838h112.142c7.638 0 13.838 6.199 13.838 13.838v523.292c0 7.638-6.199 13.838-13.838 13.838zM536.244 337.463h-112.142c-7.638 0-13.838-6.199-13.838-13.838v-373.788c0-7.638 6.199-13.838 13.838-13.838h112.086c7.638 0 13.838 6.199 13.838 13.838v373.788c0.055 7.638-6.199 13.838-13.782 13.838zM739.715 636.471h-112.086c-7.638 0-13.838-6.199-13.838-13.838v-672.796c0-7.638 6.199-13.838 13.838-13.838h112.086c7.638 0 13.838 6.199 13.838 13.838v672.796c0 7.638-6.199 13.838-13.838 13.838zM883.961 954.133c-2.878 4.096-7.638 6.365-12.565 5.812l-172.253-15.498c-4.926-0.443-9.244-3.487-11.292-7.971-2.103-4.483-1.605-9.797 1.218-13.782l18.432-26.181-274.321-161.681-133.784 110.537c-4.151 3.376-9.742 4.096-14.613 1.882l-276.757-128.249c-6.919-3.21-9.963-11.402-6.698-18.321l31.384-67.916c1.494-3.376 4.317-5.923 7.805-7.196 3.376-1.328 7.251-1.162 10.572 0.443l226.166 104.835 138.655-114.522c2.546-2.103 5.646-3.21 8.801-3.21 2.435 0 4.871 0.664 7.030 1.882l334.986 197.383 21.919-31.163c2.602-3.709 6.808-5.867 11.292-5.867 0.443 0 0.83 0 1.218 0.055 4.926 0.443 9.244 3.487 11.292 7.971l72.676 156.976c2.159 4.483 1.716 9.742-1.162 13.782z" />
<glyph unicode="&#xe91e;" glyph-name="arrow2" horiz-adv-x="1207" d="M1204.279 954.908c-3.542 4.373-9.299 6.144-14.779 4.539l-1179.703-361.112c-4.65-1.439-8.192-5.203-9.41-9.908-1.162-4.76 0.221-9.686 3.653-13.118l281.019-281.019c4.705-4.705 12.011-5.369 17.546-1.661l586.78 398.862-530.321-450.006c-2.934-2.491-4.705-6.089-4.871-9.963-0.111-3.875 1.328-7.638 4.041-10.351l281.019-281.019c2.602-2.602 6.144-4.041 9.797-4.041 0.664 0 1.273 0.055 1.993 0.111 4.317 0.609 8.081 3.266 10.185 7.030l544.436 996.324c2.712 4.871 2.159 10.96-1.384 15.332zM230.815 250.119c-4.207 4.207-10.517 5.314-15.941 2.602-5.314-2.602-8.358-8.358-7.528-14.281l36.034-261.148c0.554-3.93 2.712-7.417 5.978-9.631 2.325-1.494 4.982-2.325 7.694-2.325 1.162 0 2.325 0.111 3.487 0.443l178.619 46.495c4.816 1.218 8.579 4.982 9.853 9.742s-0.055 9.908-3.542 13.395l-214.653 214.708z" />
<glyph unicode="&#xe91f;" glyph-name="arrows3" horiz-adv-x="1147" d="M604.105 606.305c2.269 4.926 1.384 10.683-2.159 14.834l-288.823 334.045c-5.258 6.033-15.664 6.033-20.923 0l-288.823-334.101c-3.542-4.096-4.373-9.853-2.103-14.779s7.196-8.081 12.62-8.081h169.818v-237.181c0-30.277 24.631-54.964 54.964-54.964h123.323c30.277 0 54.964 24.631 54.964 54.964v237.181h174.578c5.369 0 10.295 3.155 12.565 8.081zM1145.552 289.695c-2.269 4.926-7.196 8.081-12.62 8.081h-169.818v237.181c0 30.277-24.631 54.964-54.964 54.964h-123.378c-30.333 0-54.964-24.631-54.964-54.964v-237.181h-174.578c-5.424 0-10.351-3.155-12.62-8.081s-1.384-10.683 2.159-14.834l288.879-334.101c2.602-3.044 6.421-4.76 10.461-4.76s7.86 1.771 10.461 4.76l288.823 334.101c3.542 4.151 4.428 9.908 2.159 14.834z" />
<glyph unicode="&#xe920;" glyph-name="calendar" horiz-adv-x="1008" d="M891.547 866.31v54.927c0 21.436-17.327 38.763-38.763 38.763s-38.763-17.327-38.763-38.763v-54.927h-620.207v54.927c0 21.436-17.327 38.763-38.763 38.763s-38.763-17.327-38.763-38.763v-54.927c-64.114 0-116.289-52.175-116.289-116.289v-697.733c0-64.114 52.175-116.289 116.289-116.289h775.258c64.114 0 116.289 52.175 116.289 116.289v697.733c0 64.153-52.175 116.289-116.289 116.289zM116.289 788.784h775.258c21.397 0 38.763-17.366 38.763-38.763v-125.979h-852.784v125.979c0 21.397 17.366 38.763 38.763 38.763zM891.547 13.526h-775.258c-21.397 0-38.763 17.366-38.763 38.763v494.227h852.784v-494.227c0-21.358-17.405-38.763-38.763-38.763zM342.393 459.299h77.526v-77.526h-77.526v77.526zM465.155 459.299h77.526v-77.526h-77.526v77.526zM587.917 459.299h77.526v-77.526h-77.526v77.526zM710.641 459.299h77.526v-77.526h-77.526v77.526zM219.669 333.32h77.526v-77.526h-77.526v77.526zM342.393 333.32h77.526v-77.526h-77.526v77.526zM465.155 333.32h77.526v-77.526h-77.526v77.526zM587.917 333.32h77.526v-77.526h-77.526v77.526zM710.641 333.32h77.526v-77.526h-77.526v77.526zM219.669 191.215h77.526v-77.526h-77.526v77.526zM342.393 191.215h77.526v-77.526h-77.526v77.526zM465.155 191.215h77.526v-77.526h-77.526v77.526zM587.917 191.215h77.526v-77.526h-77.526v77.526z" />
<glyph unicode="&#xe921;" glyph-name="cube-filled" d="M60.464 150.716l406.403-184.733v532.975l-406.403 184.733zM557.178 498.958v-532.975l406.403 184.733v532.975zM512.023 929.971l-387.573-176.153 387.573-176.153 387.573 176.153z" />
<glyph unicode="&#xe922;" glyph-name="cube-filled2" horiz-adv-x="959" d="M0 132.233l431.703-196.233v566.155l-431.703 196.233zM527.637 502.155v-566.155l431.703 196.233v566.155zM479.67 960l-411.701-187.119 411.701-187.119 411.701 187.119z" />
<glyph unicode="&#xe923;" glyph-name="cube-filled3" horiz-adv-x="945" d="M943.125 736.283c-0.315 0.985-0.709 1.93-1.142 2.876-1.694 4.018-3.861 7.8-6.776 11.030-0.118 0.118-0.197 0.315-0.315 0.433-2.206 2.403-4.727 4.53-7.564 6.342-1.142 0.748-2.403 1.103-3.624 1.733-0.512 0.276-0.867 0.748-1.379 1.024l-433.331 196.969c-0.433 0.197-0.906 0.118-1.379 0.315-2.6 1.103-5.397 1.379-8.194 1.891-2.285 0.394-4.491 1.142-6.776 1.142-2.324 0-4.53-0.748-6.855-1.142-2.797-0.512-5.555-0.827-8.154-1.891-0.433-0.158-0.867-0.118-1.261-0.315l-433.331-196.969c-0.473-0.236-0.788-0.709-1.3-0.985-1.221-0.591-2.521-0.985-3.703-1.773-2.836-1.812-5.397-3.979-7.603-6.382-0.079-0.079-0.079-0.118-0.118-0.197-3.033-3.309-5.239-7.17-6.973-11.267-0.394-0.945-0.788-1.812-1.103-2.797-1.339-4.018-2.285-8.154-2.285-12.448v-551.512c0-15.442 9.021-29.466 23.085-35.848l433.331-196.969c0.591-0.276 1.221-0.158 1.812-0.394 4.648-1.852 9.494-3.151 14.457-3.151s9.809 1.261 14.457 3.151c0.591 0.236 1.261 0.118 1.852 0.394l433.331 196.969c14.024 6.382 23.085 20.406 23.085 35.848v551.512c0.039 4.294-0.906 8.43-2.245 12.409zM433.291 36.572l-354.543 161.16v464.925l354.543-161.16v-464.925zM472.685 570.16l-338.156 153.714 338.156 153.714 338.116-153.714-338.116-153.714zM866.622 197.732l-354.543-161.16v464.964l354.543 161.16v-464.964zM106.048 210.22l283.635-128.936c2.6-1.182 5.397-1.773 8.154-1.773 3.742 0 7.406 1.064 10.676 3.151 5.633 3.624 9.021 9.848 9.021 16.545v371.955c0 7.721-4.53 14.733-11.542 17.924l-283.635 128.896c-6.067 2.836-13.197 2.285-18.83-1.339s-9.021-9.848-9.021-16.545v-371.955c0-7.721 4.53-14.733 11.542-17.924zM547.573 79.511c2.758 0 5.555 0.591 8.154 1.773l283.635 128.936c7.012 3.191 11.542 10.203 11.542 17.924v371.955c0 6.697-3.388 12.921-9.021 16.545-5.633 3.585-12.685 4.136-18.83 1.379l-283.635-128.896c-7.012-3.191-11.542-10.203-11.542-17.924v-371.955c0-6.697 3.388-12.921 9.021-16.545 3.23-2.127 6.933-3.191 10.676-3.191zM724.253 741.759l-243.453 110.657c-5.2 2.364-11.109 2.364-16.309 0l-243.453-110.657c-7.012-3.191-11.542-10.164-11.542-17.924s4.53-14.733 11.542-17.924l243.492-110.696c2.6-1.182 5.358-1.773 8.154-1.773s5.555 0.591 8.154 1.773l243.453 110.696c7.012 3.191 11.542 10.203 11.542 17.924s-4.57 14.733-11.582 17.924z" />
<glyph unicode="&#xe924;" glyph-name="arrows2-filled" d="M982.292 842.831c-16.778 12.091-39.936 13.942-57.698 5.632l-77.706-35.328c-99.328 82.944-223.98 128.354-353.753 128.354-156.396 0-306.097-66.678-410.585-182.705-10.516-11.5-15.99-27.057-15.006-42.89 1.063-15.557 8.468-30.208 19.889-39.936l104.881-90.939c22.764-19.889 60.337-17.841 80.896 4.529 70.814 77.509 181.248 112.876 283.687 90.033-12.721-9.649-21.11-24.261-22.686-40.251-2.206-20.716 7.050-41.078 23.946-53.090l319.134-227.998c9.886-6.932 21.425-10.594 33.477-10.594 8.231 0 16.226 1.694 24.143 5.238 18.708 8.586 31.547 26.585 33.595 47.104l37.809 389.986c2.009 20.598-7.168 40.842-24.025 52.854zM831.685 310.981c-22.882 19.968-60.495 17.723-80.857-4.569-70.932-77.509-181.445-112.679-283.727-89.994 12.721 9.649 21.11 24.34 22.764 40.724 1.89 20.519-7.326 40.684-23.985 52.618l-318.818 227.643c-16.66 12.052-38.912 14.297-57.974 5.711-18.786-8.625-31.665-26.742-33.556-47.104l-37.809-390.105c-2.048-20.48 7.129-40.645 23.867-52.736 16.66-11.973 38.794-14.257 57.777-5.711l77.706 35.328c99.367-82.905 224.020-128.315 353.753-128.315 156.396 0 306.097 66.678 410.782 182.902 10.398 11.461 15.793 26.939 14.848 42.693-1.103 15.636-8.231 29.854-19.929 39.936l-104.842 90.978z" />
<glyph unicode="&#xe925;" glyph-name="funds-filled" horiz-adv-x="1479" d="M739.556 385.479c354.19 0 712.761 98.020 712.761 285.355 0 187.278-358.571 285.298-712.761 285.298s-712.761-98.020-712.761-285.298c0-187.335 358.571-285.355 712.761-285.355zM1444.921 426.439c-4.153-10.297-13.71-23.836-29.127-36.693-14.848-13.426-37.262-24.86-62.635-36.978-26.795-10.524-57.23-20.878-91.705-29.696-34.361-8.818-72.42-16.1-112.811-22.812-40.334-6.827-83.57-10.98-128.057-16.156-44.601-4.949-91.022-6.087-138.012-9.557-23.268-0.853-46.763-1.707-70.315-2.56l-73.671-0.284c-46.137-0.341-95.403 0.455-142.108 2.844-46.99 3.243-93.468 4.608-138.069 9.5-44.43 5.177-87.723 9.216-128.057 16.1-40.391 6.77-78.45 13.938-112.811 22.812-34.532 8.818-64.967 19.172-91.705 29.753-25.316 12.117-47.787 23.552-62.578 37.035-15.474 13.369-24.462 25.031-29.013 36.466-3.812 11.093-5.803 17.010-5.803 17.010s-0.114-6.258-0.284-17.92c0.228-10.524 4.836-31.46 17.977-50.119 12.402-20.025 32.484-40.050 57.799-59.79 25.714-18.432 56.206-37.831 91.364-53.476 69.803-33.166 155.705-59.335 249.060-76.8 46.763-8.192 95.175-16.156 144.782-20.082 50.005-3.868 99.044-6.087 151.324-6.997l73.728 2.162c25.372 1.593 50.688 3.186 75.776 4.779 49.607 3.698 98.076 11.833 144.782 20.025 93.355 17.408 179.314 43.634 249.060 76.8 35.214 15.644 65.707 35.044 91.364 53.532 25.316 19.74 45.397 39.765 57.799 59.847 13.255 19.172 17.294 38.286 17.92 49.948-0.114 11.776-0.228 18.091-0.228 18.091s-1.991-5.803-5.746-16.782zM1444.921 208.384c-4.153-10.297-13.71-23.836-29.127-36.693-14.848-13.426-37.262-24.86-62.635-36.978-26.795-10.524-57.23-20.878-91.705-29.696-34.361-8.818-72.42-16.1-112.811-22.812-40.334-6.827-83.57-10.98-128.057-16.156-44.601-4.949-91.022-6.087-138.012-9.557-23.268-0.853-46.763-1.707-70.315-2.56l-73.671-0.284c-46.137-0.341-95.403 0.455-142.108 2.844-46.99 3.243-93.468 4.608-138.069 9.5-44.43 5.177-87.723 9.216-128.057 16.1-40.391 6.77-78.45 13.938-112.811 22.812-34.532 8.818-64.967 19.172-91.705 29.753-25.316 12.117-47.787 23.552-62.578 37.035-15.474 13.369-24.519 25.088-29.070 36.523-3.755 11.036-5.746 16.953-5.746 16.953s-0.114-6.258-0.284-17.92c0.228-10.524 4.836-31.46 17.977-50.119 12.402-20.025 32.484-40.050 57.799-59.79 25.714-18.432 56.206-37.888 91.364-53.476 69.803-33.166 155.705-59.335 249.060-76.8 46.763-8.192 95.175-16.156 144.782-20.082 50.005-3.868 99.044-6.087 151.324-6.997l73.728 2.162c25.372 1.593 50.688 3.186 75.776 4.779 49.607 3.698 98.076 11.833 144.782 20.025 93.355 17.408 179.314 43.634 249.060 76.8 35.214 15.644 65.707 35.044 91.364 53.532 25.316 19.74 45.397 39.765 57.799 59.847 13.255 19.172 17.294 38.286 17.92 49.948-0.171 11.833-0.284 18.148-0.284 18.148s-1.934-5.916-5.689-16.839z" />
<glyph unicode="&#xe926;" glyph-name="star-filled2" horiz-adv-x="1063" d="M782.612-45.45c-17.526 0-34.383 4.214-50.058 12.564l-200.822 105.511-200.862-105.59c-43.205-22.961-100.746-11.5-132.332 25.954-20.559 24.379-28.908 55.296-23.552 87.119l38.4 223.823-162.54 158.366c-29.381 28.633-39.818 70.735-27.254 109.922 12.721 39.345 46.001 67.348 86.882 73.177l224.532 32.65 100.352 203.5c18.353 36.943 55.257 59.904 96.335 59.904 41.236 0 78.139-22.961 96.335-59.904l100.352-203.461 224.65-32.689c40.645-5.79 73.886-33.753 86.686-73.019 12.642-39.109 2.284-81.25-27.018-110.001l-162.658-158.444 38.4-223.744c5.356-31.35-3.23-63.134-23.552-87.198-20.48-24.418-50.491-38.439-82.274-38.439z" />
<glyph unicode="&#xe927;" glyph-name="rocket-filled" d="M991.311 883.279c-5.553 20.638-21.819 36.943-42.535 42.457-76.879 20.519-159.35 20.913-236.859 0.985-12.052-3.151-23.906-6.814-33.792-10.279l-4.844-1.654c-63.646-22.567-122.722-59.628-171.047-107.284l-56.911-65.694c-103.463-3.623-203.697-46.946-276.953-120.241-25.403-25.403-47.301-53.878-65.182-84.677-9.413-16.266-10.673-36.273-3.426-53.287 7.207-17.25 22.292-30.366 40.566-35.052l72.743-18.55-7.404-20.126c-16.384-44.583-5.317-95.035 28.278-128.63l112.994-112.994c32.886-32.847 84.48-44.386 128.591-28.239l20.165 7.404 18.511-72.822c4.687-18.117 17.723-33.28 35.013-40.487 7.404-3.072 15.242-4.647 23.237-4.647 10.634 0 21.071 2.796 30.129 8.113 30.759 17.802 59.274 39.739 84.638 65.142 73.374 73.334 116.657 173.371 120.32 276.913l60.416 51.988 3.663 3.387c48.286 48.404 85.937 108.071 108.071 170.575l1.851 5.041c4.096 11.776 7.719 23.71 10.791 35.761 19.968 77.627 19.653 159.468-1.024 236.898zM734.602 486.006c-24.458-24.458-56.95-37.927-91.49-37.927-34.58 0-67.072 13.47-91.53 37.927-24.458 24.379-37.927 56.911-37.927 91.53 0 34.58 13.47 67.072 37.927 91.53 48.916 48.876 134.065 48.955 183.020 0 50.452-50.452 50.452-132.608 0-183.060zM120.005 139.225c10.082 0 20.165 3.86 27.845 11.54l66.836 66.875c15.399 15.399 15.399 40.33 0 55.69-15.399 15.399-40.29 15.399-55.69 0l-66.836-66.875c-15.399-15.399-15.399-40.33 0-55.69 7.719-7.68 17.802-11.54 27.845-11.54zM275.22 212.834c-15.399 15.399-40.29 15.399-55.69 0l-191.055-191.055c-15.399-15.399-15.399-40.29 0-55.69 7.68-7.68 17.762-11.54 27.845-11.54s20.165 3.86 27.845 11.54l191.055 191.055c15.399 15.399 15.399 40.33 0 55.69zM283.215 149.15l-92.357-92.357c-15.399-15.399-15.399-40.29 0-55.69 7.68-7.68 17.762-11.54 27.845-11.54s20.165 3.86 27.845 11.54l92.357 92.357c15.399 15.399 15.399 40.29 0 55.69s-40.29 15.399-55.69 0z" />
<glyph unicode="&#xe928;" glyph-name="chart2" horiz-adv-x="1524" d="M1497.537 960h-314.43c-10.614 0-20.177-6.411-24.276-16.184-4.099-9.878-1.787-21.123 5.675-28.585l101.517-101.202-381.688-365.714-226.259 234.667c-4.834 5.149-11.665 7.987-18.811 8.092 0 0 0 0-0.105 0-7.041 0-13.767-2.837-18.706-7.882l-612.887-623.921c-10.194-10.404-10.089-27.008 0.315-37.202l79.974-78.713c4.939-4.834 11.56-7.567 18.391-7.567 0 0 0.105 0 0.21 0 6.936 0 13.662 2.837 18.496 7.882l513.156 522.509 223.107-231.724c10.194-10.089 26.693-10.614 37.202-0.631l484.256 463.448 96.263-96.263c7.567-7.461 18.916-9.878 28.585-5.675 9.878 4.099 16.289 13.662 16.289 24.276v314.115c0 14.502-11.77 26.273-26.273 26.273z" />
<glyph unicode="&#xe929;" glyph-name="close2" d="M665.146 448l352.509 352.595c8.403 8.403 8.403 21.951 0 30.355l-122.877 122.877c-8.060 8.060-22.294 8.060-30.355 0l-352.423-352.681-352.509 352.595c-8.060 8.060-22.294 8.060-30.355 0l-122.877-122.877c-8.403-8.403-8.403-21.951 0-30.355l352.509-352.595-352.509-352.595c-8.403-8.403-8.403-21.951 0-30.355l122.877-122.877c4.030-4.030 9.432-6.26 15.177-6.26s11.147 2.229 15.177 6.26l352.509 352.595 352.509-352.595c4.030-4.030 9.432-6.26 15.177-6.26s11.147 2.229 15.177 6.26l122.877 122.877c8.403 8.403 8.403 21.951 0 30.355l-352.595 352.681z" />
<glyph unicode="&#xe92a;" glyph-name="chart3-filled" horiz-adv-x="1103" d="M299.599 311.454h-141.627c-21.78 0-39.385-17.605-39.385-39.385v-290.698c0-21.78 17.605-39.385 39.385-39.385h141.627c21.78 0 39.385 17.605 39.385 39.385v290.698c0 21.78-17.644 39.385-39.385 39.385zM618.693 379.628h-141.588c-21.78 0-39.385-17.605-39.385-39.385v-358.833c0-21.78 17.605-39.385 39.385-39.385h141.588c21.78 0 39.385 17.605 39.385 39.385v358.833c0 21.74-17.605 39.385-39.385 39.385zM937.866 519.010h-141.627c-21.78 0-39.385-17.605-39.385-39.385v-498.215c0-21.78 17.605-39.385 39.385-39.385h141.627c21.78 0 39.385 17.605 39.385 39.385v498.215c0 21.78-17.644 39.385-39.385 39.385zM1074.885 895.33c-14.69 21.031-38.676 33.595-64.158 33.595-0.433 0-1.26-0.039-2.284-0.079l-192.985 24.852c-2.875 0.315-5.75 0.433-8.586 0.158-27.884-2.521-52.539-19.889-64.394-45.292-10.319-22.252-2.166-45.844 22.37-83.298l-221.46-133.159-85.937 70.971c-23.040 19.102-55.729 23.67-83.81 10.634l-314.486-150.37c-39.345-18.314-56.556-65.221-38.282-104.527l28.633-61.913c8.743-18.865 24.93-33.713 44.268-40.802 8.743-3.19 17.841-4.844 27.136-4.844 11.5 0 22.607 2.481 33.674 7.522l230.833 111.183 93.854-77.548c24.93-20.677 62.031-23.788 90.466-7.089l328.665 196.805c22.016-21.622 58.801-53.287 85.071-53.287 1.182 0 5.908 0.197 7.089 0.315 27.884 2.521 52.539 19.889 64.354 45.253 1.615 3.466 2.718 7.129 3.269 10.87l26.23 177.822c8.783 24.103 5.278 51.239-9.531 72.231z" />
<glyph unicode="&#xe92b;" glyph-name="chart3" horiz-adv-x="1103" d="M299.599 311.454h-141.627c-21.78 0-39.385-17.605-39.385-39.385v-290.698c0-21.78 17.605-39.385 39.385-39.385h141.627c21.78 0 39.385 17.605 39.385 39.385v290.698c0 21.78-17.644 39.385-39.385 39.385zM260.214 20.756h-62.858v211.929h62.858v-211.929zM618.693 379.628h-141.588c-21.78 0-39.385-17.605-39.385-39.385v-358.833c0-21.78 17.605-39.385 39.385-39.385h141.588c21.78 0 39.385 17.605 39.385 39.385v358.833c0 21.74-17.605 39.385-39.385 39.385zM579.308 20.756h-62.818v280.064h62.818v-280.064zM937.866 519.010h-141.627c-21.78 0-39.385-17.605-39.385-39.385v-498.215c0-21.78 17.605-39.385 39.385-39.385h141.627c21.78 0 39.385 17.605 39.385 39.385v498.215c0 21.78-17.644 39.385-39.385 39.385zM898.481 20.756h-62.858v419.446h62.858v-419.446zM1074.885 895.33c-14.69 21.031-38.676 33.595-64.158 33.595-0.433 0-1.26-0.039-2.284-0.079l-192.985 24.852c-2.875 0.315-5.75 0.433-8.586 0.158-27.884-2.521-52.539-19.889-64.394-45.292-10.319-22.252-2.166-45.844 22.37-83.298l-221.46-133.159-85.937 70.971c-23.040 19.102-55.729 23.67-83.81 10.634l-314.486-150.37c-39.345-18.314-56.556-65.221-38.282-104.527l28.633-61.913c8.743-18.865 24.93-33.713 44.268-40.802 8.743-3.19 17.841-4.844 27.136-4.844 11.5 0 22.607 2.481 33.674 7.522l230.833 111.183 93.854-77.548c24.93-20.677 62.031-23.788 90.466-7.089l328.665 196.805c22.016-21.622 58.801-53.287 85.071-53.287 1.182 0 5.908 0.197 7.089 0.315 27.884 2.521 52.539 19.889 64.354 45.253 1.615 3.466 2.718 7.129 3.269 10.87l26.23 177.822c8.783 24.103 5.278 51.239-9.531 72.231zM1007.222 839.286l-24.537-166.006c-13.982 10.476-33.674 27.924-38.558 33.753l-5.79 8.271c-11.815 16.857-34.737 21.74-52.46 11.146l-356.352-213.346-113.388 93.657c-11.815 9.767-28.357 11.737-42.142 5.12l-252.928-121.856c-0.039 0-0.079-0.039-0.118-0.039l-28.199 62.070 314.486 150.252 107.481-88.773c12.879-10.673 31.035-12.012 45.371-3.387l281.442 169.196c9.374 5.671 15.911 15.045 18.196 25.758 2.245 10.673-0.118 21.977-6.42 30.878l-3.387 4.687c-9.886 13.785-16.896 24.103-21.858 31.902l173.726-22.331c2.954-0.394 5.632-0.433 8.586-0.158-1.536-3.387-2.639-7.050-3.151-10.791z" />
<glyph unicode="&#xe92c;" glyph-name="check2-filled" horiz-adv-x="945" d="M361.945-45.45c-40.33 0-79.045 19.22-103.463 51.436l-231.857 306.176c-43.166 57.029-31.902 138.634 25.127 181.878 22.804 17.25 49.9 26.309 78.297 26.309 41.039 0 78.809-18.786 103.582-51.515l117.918-155.648 353.201 567.060c23.867 38.361 65.103 61.204 110.316 61.204 24.182 0 47.892-6.774 68.529-19.574 29.42-18.353 49.979-47.025 57.817-80.857 7.877-33.753 2.127-68.569-16.226-97.989l-453.041-727.276c-22.449-36.273-61.479-59.116-104.212-61.125l-5.986-0.079z" />
<glyph unicode="&#xe92d;" glyph-name="check2" horiz-adv-x="945" d="M361.945-45.45c-40.33 0-79.045 19.22-103.463 51.436l-231.857 306.176c-43.166 57.029-31.902 138.634 25.127 181.878 22.804 17.25 49.9 26.309 78.297 26.309 41.039 0 78.809-18.786 103.582-51.515l117.918-155.648 353.201 567.060c23.867 38.361 65.103 61.204 110.316 61.204 24.182 0 47.892-6.774 68.529-19.574 29.42-18.353 49.979-47.025 57.817-80.857 7.877-33.753 2.127-68.569-16.226-97.989l-453.041-727.276c-22.449-36.273-61.479-59.116-104.212-61.125l-5.986-0.079zM361.945 32.335l0.118-38.439 0.827 39.424c18.196 0.788 33.516 9.728 42.338 23.985l453.081 727.355c7.207 11.579 9.452 25.285 6.38 38.558-3.111 13.273-11.185 24.576-22.725 31.783-23.316 14.454-56.005 6.735-70.38-16.384l-383.449-615.66c-6.853-10.988-18.708-17.959-31.626-18.55-13.745-1.182-25.403 5.278-33.201 15.596l-152.458 201.295c-16.502 21.819-49.625 26.466-71.562 9.925-22.37-17.014-26.86-49.113-9.846-71.522l231.818-306.137c9.61-12.642 24.852-20.244 40.684-20.244v-0.985z" />
<glyph unicode="&#xe92e;" glyph-name="clock-filled" horiz-adv-x="827" d="M413.538-58.014c-61.913 0-112.286 50.373-112.286 112.286 0 16.305 13.194 30.011 29.46 30.011h165.612c16.305 0 29.46-13.194 29.46-29.46 0.039-62.464-50.334-112.837-112.246-112.837zM725.228 113.073h-623.38c-33.359 0-63.724 18.314-79.321 47.774-15.557 29.42-13.588 64.827 5.12 92.357l92.751 136.31v170.338c0 128.394 84.047 241.034 203.973 279.276v25.718c0 49.152 40.015 89.167 89.167 89.167s89.127-40.015 89.127-89.167v-25.718c119.926-38.242 203.973-150.882 203.973-279.276v-170.378l92.751-136.271c18.786-27.569 20.716-62.976 5.12-92.436-15.596-29.42-45.962-47.695-79.281-47.695z" />
<glyph unicode="&#xe92f;" glyph-name="clock" horiz-adv-x="827" d="M413.538-58.014c-61.913 0-112.286 50.373-112.286 112.286 0 16.305 13.194 30.011 29.46 30.011h165.612c16.305 0 29.46-13.194 29.46-29.46 0.039-62.464-50.334-112.837-112.246-112.837zM725.228 113.073h-623.38c-33.359 0-63.724 18.314-79.321 47.774-15.557 29.42-13.588 64.827 5.12 92.357l92.751 136.31v170.338c0 128.394 84.047 241.034 203.973 279.276v25.718c0 49.152 40.015 89.167 89.167 89.167s89.127-40.015 89.127-89.167v-25.718c119.926-38.242 203.973-150.882 203.973-279.276v-170.378l92.751-136.271c18.786-27.569 20.716-62.976 5.12-92.436-15.596-29.42-45.962-47.695-79.281-47.695zM413.538 875.244c-5.75 0-10.398-4.647-10.398-10.398v-56.202c0-18.826-13.273-34.974-31.705-38.597-99.801-19.85-172.268-108.229-172.268-210.196v-182.508c0-7.916-2.402-15.596-6.814-22.174l-99.564-146.314c-2.284-3.348-2.521-7.68-0.63-11.264s5.593-5.79 9.649-5.79h623.38c4.057 0 7.719 2.245 9.649 5.829 1.89 3.584 1.654 7.877-0.63 11.225l-99.604 146.314c-4.411 6.538-6.814 14.218-6.814 22.174v182.508c0 101.967-72.468 190.346-172.268 210.196-18.432 3.663-31.705 19.81-31.705 38.597v56.202c0.039 5.75-4.608 10.398-10.279 10.398z" />
<glyph unicode="&#xe930;" glyph-name="claim" horiz-adv-x="1252" d="M1080.889 777.956h-216.178v34.133c0 81.579-66.389 147.911-147.911 147.911h-182.044c-81.579 0-147.911-66.332-147.911-147.911v-34.133h-216.178c-81.579 0-147.911-66.332-147.911-147.911v-546.133c0-81.522 66.332-147.911 147.911-147.911h910.222c81.579 0 147.911 66.389 147.911 147.968v546.076c0 81.579-66.332 147.911-147.911 147.911zM500.622 812.089c0 18.83 15.303 34.133 34.133 34.133h182.044c18.83 0 34.133-15.303 34.133-34.133v-34.133h-250.311v34.133zM1115.022 83.968c0-18.83-15.303-34.19-34.133-34.19h-910.222c-18.83 0-34.133 15.36-34.133 34.19v546.076c0 18.83 15.303 34.133 34.133 34.133h910.222c18.83 0 34.133-15.303 34.133-34.133v-546.076zM793.714 383.431h-92.615v131.698c0 21.049-17.124 38.172-38.116 38.172h-71.737c-20.992 0-38.116-17.124-38.116-38.172v-131.641h-95.289c-5.575 0-10.638-3.243-12.971-8.306-2.276-5.063-1.422-10.98 2.162-15.189l167.936-194.276c2.731-3.186 6.656-4.949 10.752-4.949s8.078 1.764 10.752 4.949l167.936 194.276c3.584 4.153 4.437 10.126 2.162 15.189-2.219 5.063-7.282 8.249-12.857 8.249z" />
</font>
</defs>
</svg>
