<?xml version="1.0" ?><!--
  ~  Copyright (c) 2015 Cryptonomex, Inc., and contributors.
  ~
  ~  The MIT License
  ~
  ~  Permission is hereby granted, free of charge, to any person obtaining a copy
  ~  of this software and associated documentation files (the "Software"), to deal
  ~  in the Software without restriction, including without limitation the rights
  ~  to use, copy, modify, merge, publish, distribute, sublicense, and/or sell
  ~  copies of the Software, and to permit persons to whom the Software is
  ~  furnished to do so, subject to the following conditions:
  ~
  ~  The above copyright notice and this permission notice shall be included in
  ~  all copies or substantial portions of the Software.
  ~
  ~  THE SOFTWARE IS PROVIDED "AS IS", WITHOUT WARRANTY OF ANY KIND, EXPRESS OR
  ~  IMPLIED, INCLUDING BUT NOT LIMITED TO THE WARRANTIES OF MERCHANTABILITY,
  ~  FITNESS FOR A PARTICULAR PURPOSE AND NONINFRINGEMENT. IN NO EVENT SHALL THE
  ~  AUTHORS OR COPYRIGHT HOLDERS BE LIABLE FOR ANY CLAIM, DAMAGES OR OTHER
  ~  LIABILITY, WHETHER IN AN ACTION OF CONTRACT, TORT OR OTHERWISE, ARISING FROM,
  ~  OUT OF OR IN CONNECTION WITH THE SOFTWARE OR THE USE OR OTHER DEALINGS IN
  ~  THE SOFTWARE.
  -->

<!DOCTYPE svg  PUBLIC '-//W3C//DTD SVG 1.1//EN'  'http://www.w3.org/Graphics/SVG/1.1/DTD/svg11.dtd'>
<svg enable-background="new 0 0 24 24" height="24px" id="Layer_1" version="1.1" viewBox="0 0 24 24" width="24px" xml:space="preserve" xmlns="http://www.w3.org/2000/svg" xmlns:xlink="http://www.w3.org/1999/xlink"><path clip-rule="evenodd" d="M21.652,3.211c-0.293-0.295-0.77-0.295-1.061,0L9.41,14.34  c-0.293,0.297-0.771,0.297-1.062,0L3.449,9.351C3.304,9.203,3.114,9.13,2.923,9.129C2.73,9.128,2.534,9.201,2.387,9.351  l-2.165,1.946C0.078,11.445,0,11.63,0,11.823c0,0.194,0.078,0.397,0.223,0.544l4.94,5.184c0.292,0.296,0.771,0.776,1.062,1.07  l2.124,2.141c0.292,0.293,0.769,0.293,1.062,0l14.366-14.34c0.293-0.294,0.293-0.777,0-1.071L21.652,3.211z" fill-rule="evenodd"/></svg>
