<?xml version="1.0" encoding="utf-8"?>
<!--
  ~  Copyright (c) 2015 Cryptonomex, Inc., and contributors.
  ~
  ~  The MIT License
  ~
  ~  Permission is hereby granted, free of charge, to any person obtaining a copy
  ~  of this software and associated documentation files (the "Software"), to deal
  ~  in the Software without restriction, including without limitation the rights
  ~  to use, copy, modify, merge, publish, distribute, sublicense, and/or sell
  ~  copies of the Software, and to permit persons to whom the Software is
  ~  furnished to do so, subject to the following conditions:
  ~
  ~  The above copyright notice and this permission notice shall be included in
  ~  all copies or substantial portions of the Software.
  ~
  ~  THE SOFTWARE IS PROVIDED "AS IS", WITHOUT WARRANTY OF ANY KIND, EXPRESS OR
  ~  IMPLIED, INCLUDING BUT NOT LIMITED TO THE WARRANTIES OF MERCHANTABILITY,
  ~  FITNESS FOR A PARTICULAR PURPOSE AND NONINFRINGEMENT. IN NO EVENT SHALL THE
  ~  AUTHORS OR COPYRIGHT HOLDERS BE LIABLE FOR ANY CLAIM, DAMAGES OR OTHER
  ~  LIABILITY, WHETHER IN AN ACTION OF CONTRACT, TORT OR OTHERWISE, ARISING FROM,
  ~  OUT OF OR IN CONNECTION WITH THE SOFTWARE OR THE USE OR OTHER DEALINGS IN
  ~  THE SOFTWARE.
  -->

<!-- Generator: Adobe Illustrator 19.1.0, SVG Export Plug-In . SVG Version: 6.00 Build 0)  -->
<svg version="1.1" id="Ebene_1" xmlns:sketch="http://www.bohemiancoding.com/sketch/ns"
	 xmlns="http://www.w3.org/2000/svg" xmlns:xlink="http://www.w3.org/1999/xlink" x="0px" y="0px" viewBox="-725.4 233 39.4 36.9"
	 style="enable-background:new -725.4 233 39.4 36.9;" xml:space="preserve">
<g>
	<path d="M-702.3,254.2c0,0,0,14.8,0,15.6l-1.2,0c0-8,0-7.3,0-15.7H-702.3z"/>
	<path d="M-691.2,249.4c0-9-7.3-16.4-16.4-16.4c-9,0-16.4,7.3-16.4,16.4c0,9,7.3,16.4,16.4,16.4v-1.4c-8.3,0-15-6.7-15-15
		s6.7-15,15-15s15,6.7,15,15H-691.2z"/>
	<path d="M-703.5,269.9c9,0,16.4-7.3,16.4-16.4h-1.4c0,8.3-6.7,15-15,15V269.9z"/>
	<path d="M-691.2,249.4c0,1-1.4,1-1.4,0C-692.7,248.4-691.2,248.4-691.2,249.4"/>
	<path d="M-706.9,265.1c0,1-1.4,1-1.4,0S-706.9,264.1-706.9,265.1"/>
	<path d="M-702.1,254.2c0,1-1.4,1-1.4,0S-702.1,253.2-702.1,254.2"/>
	<path d="M-687.2,254.7c0,0-14.8,0-15.6,0v-1.2c0.8,0,15.7,0,15.7,0L-687.2,254.7"/>
</g>
</svg>
