<?xml version="1.0" encoding="utf-8"?>
<!--
  ~  Copyright (c) 2015 Cryptonomex, Inc., and contributors.
  ~
  ~  The MIT License
  ~
  ~  Permission is hereby granted, free of charge, to any person obtaining a copy
  ~  of this software and associated documentation files (the "Software"), to deal
  ~  in the Software without restriction, including without limitation the rights
  ~  to use, copy, modify, merge, publish, distribute, sublicense, and/or sell
  ~  copies of the Software, and to permit persons to whom the Software is
  ~  furnished to do so, subject to the following conditions:
  ~
  ~  The above copyright notice and this permission notice shall be included in
  ~  all copies or substantial portions of the Software.
  ~
  ~  THE SOFTWARE IS PROVIDED "AS IS", WITHOUT WARRANTY OF ANY KIND, EXPRESS OR
  ~  IMPLIED, INCLUDING BUT NOT LIMITED TO THE WARRANTIES OF MERCHANTABILITY,
  ~  FITNESS FOR A PARTICULAR PURPOSE AND NONINFRINGEMENT. IN NO EVENT SHALL THE
  ~  AUTHORS OR COPYRIGHT HOLDERS BE LIABLE FOR ANY CLAIM, DAMAGES OR OTHER
  ~  LIABILITY, WHETHER IN AN ACTION OF CONTRACT, TORT OR OTHERWISE, ARISING FROM,
  ~  OUT OF OR IN CONNECTION WITH THE SOFTWARE OR THE USE OR OTHER DEALINGS IN
  ~  THE SOFTWARE.
  -->

<svg width="1792" height="1792" viewBox="0 0 1792 1792" xmlns="http://www.w3.org/2000/svg">
    <path d="M800 864v-448q0-14-9-23t-23-9-23 9-9 23v448q0 14 9 23t23 9 23-9 9-23zm672 352q0 26-19 45t-45 19h-429l-51 483q-2 12-10.5 20.5t-20.5 8.5h-1q-27 0-32-27l-76-485h-404q-26 0-45-19t-19-45q0-123 78.5-221.5t177.5-98.5v-512q-52 0-90-38t-38-90 38-90 90-38h640q52 0 90 38t38 90-38 90-90 38v512q99 0 177.5 98.5t78.5 221.5z"/>
</svg>