<?xml version="1.0" encoding="utf-8"?>
<!--
  ~  Copyright (c) 2015 Cryptonomex, Inc., and contributors.
  ~
  ~  The MIT License
  ~
  ~  Permission is hereby granted, free of charge, to any person obtaining a copy
  ~  of this software and associated documentation files (the "Software"), to deal
  ~  in the Software without restriction, including without limitation the rights
  ~  to use, copy, modify, merge, publish, distribute, sublicense, and/or sell
  ~  copies of the Software, and to permit persons to whom the Software is
  ~  furnished to do so, subject to the following conditions:
  ~
  ~  The above copyright notice and this permission notice shall be included in
  ~  all copies or substantial portions of the Software.
  ~
  ~  THE SOFTWARE IS PROVIDED "AS IS", WITHOUT WARRANTY OF ANY KIND, EXPRESS OR
  ~  IMPLIED, INCLUDING BUT NOT LIMITED TO THE WARRANTIES OF MERCHANTABILITY,
  ~  FITNESS FOR A PARTICULAR PURPOSE AND NONINFRINGEMENT. IN NO EVENT SHALL THE
  ~  AUTHORS OR COPYRIGHT HOLDERS BE LIABLE FOR ANY CLAIM, DAMAGES OR OTHER
  ~  LIABILITY, WHETHER IN AN ACTION OF CONTRACT, TORT OR OTHERWISE, ARISING FROM,
  ~  OUT OF OR IN CONNECTION WITH THE SOFTWARE OR THE USE OR OTHER DEALINGS IN
  ~  THE SOFTWARE.
  -->

<!-- Generated by IcoMoon.io -->
<!DOCTYPE svg PUBLIC "-//W3C//DTD SVG 1.1//EN" "http://www.w3.org/Graphics/SVG/1.1/DTD/svg11.dtd">
<svg version="1.1" xmlns="http://www.w3.org/2000/svg" xmlns:xlink="http://www.w3.org/1999/xlink" width="17" height="17" viewBox="0 0 17 17">
<g>
</g>
	<path d="M10.935 2.016c-0.218-0.869-0.999-1.516-1.935-1.516-0.932 0-1.71 0.643-1.931 1.516h-3.569v1h11v-1h-3.565zM9 1.5c0.382 0 0.705 0.221 0.875 0.516h-1.733c0.172-0.303 0.485-0.516 0.858-0.516zM13 4h1v10.516c0 0.827-0.673 1.5-1.5 1.5h-7c-0.827 0-1.5-0.673-1.5-1.5v-10.516h1v10.516c0 0.275 0.224 0.5 0.5 0.5h7c0.276 0 0.5-0.225 0.5-0.5v-10.516zM8 5v8h-1v-8h1zM11 5v8h-1v-8h1z" fill="#000000" />
</svg>
