<?xml version="1.0" encoding="UTF-8" standalone="no"?>
<svg
   xmlns:dc="http://purl.org/dc/elements/1.1/"
   xmlns:cc="http://creativecommons.org/ns#"
   xmlns:rdf="http://www.w3.org/1999/02/22-rdf-syntax-ns#"
   xmlns:svg="http://www.w3.org/2000/svg"
   xmlns="http://www.w3.org/2000/svg"
   viewBox="0 0 404.56 175.56934"
   height="175.56934"
   width="404.56"
   xml:space="preserve"
   id="svg2"
   version="1.1"><metadata
     id="metadata8"><rdf:RDF><cc:Work
         rdf:about=""><dc:format>image/svg+xml</dc:format><dc:type
           rdf:resource="http://purl.org/dc/dcmitype/StillImage" /></cc:Work></rdf:RDF></metadata><defs
     id="defs6"><clipPath
       id="clipPath18"
       clipPathUnits="userSpaceOnUse"><path
         id="path16"
         d="M 0,131.677 H 303.42 V 0 H 0 Z" /></clipPath></defs><g
     transform="matrix(1.3333333,0,0,-1.3333333,0,175.56933)"
     id="g10"><g
       id="g12"><g
         clip-path="url(#clipPath18)"
         id="g14"><g
           transform="translate(125.7029,53.5878)"
           id="g20"><path
             id="path22"
             style="fill:#ffffff;fill-opacity:1;fill-rule:nonzero;stroke:none"
             d="m 0,0 h 7.681 c 1.118,0 1.556,0.097 1.896,0.438 0.34,0.34 0.583,0.923 0.583,3.889 0,3.014 -0.194,3.694 -0.632,4.083 C 9.237,8.702 8.848,8.799 7.681,8.799 H 0 Z m 7.486,14.244 c 1.07,0 1.507,0.048 1.799,0.34 0.389,0.438 0.583,1.215 0.583,3.646 0,2.382 -0.194,3.063 -0.583,3.452 C 9.042,21.925 8.653,22.07 7.486,22.07 H 0 V 14.244 Z M 18.133,3.549 c 0,-4.473 -0.827,-6.369 -2.236,-7.778 -1.216,-1.216 -3.014,-1.75 -5.494,-1.75 h -22.022 v 6.125 h 4.084 v 21.827 h -4.084 v 6.077 h 22.022 c 2.625,0 4.23,-0.438 5.396,-1.604 1.41,-1.459 2.042,-3.501 2.042,-7.292 0,-4.91 -1.701,-6.66 -4.958,-7.584 v -0.097 c 3.646,-0.778 5.25,-2.528 5.25,-7.924" /></g><g
           transform="translate(154.576,53.8795)"
           id="g24"><path
             id="path26"
             style="fill:#ffffff;fill-opacity:1;fill-rule:nonzero;stroke:none"
             d="m 0,0 c 0.34,-0.34 0.729,-0.438 1.993,-0.438 h 4.473 c 1.264,0 1.652,0.098 1.944,0.438 0.389,0.438 0.632,1.361 0.632,7.098 0,5.736 -0.243,6.708 -0.632,7.097 -0.292,0.34 -0.68,0.486 -1.944,0.486 H 1.993 C 0.729,14.681 0.34,14.584 0,14.195 -0.389,13.806 -0.583,12.834 -0.583,7.098 -0.583,1.361 -0.389,0.438 0,0 m -5.445,-4.618 c -1.75,1.75 -2.43,4.18 -2.43,11.716 0,7.583 0.68,9.965 2.43,11.764 1.118,1.167 2.577,1.604 5.299,1.604 h 8.702 c 2.722,0 4.181,-0.437 5.347,-1.604 1.75,-1.799 2.382,-4.181 2.382,-11.764 0,-7.584 -0.632,-9.966 -2.382,-11.716 -1.166,-1.216 -2.625,-1.653 -5.347,-1.653 h -8.702 c -2.722,0 -4.132,0.437 -5.299,1.653" /></g><g
           transform="translate(181.5052,53.8795)"
           id="g28"><path
             id="path30"
             style="fill:#ffffff;fill-opacity:1;fill-rule:nonzero;stroke:none"
             d="m 0,0 c 0.34,-0.34 0.729,-0.438 1.993,-0.438 h 4.473 c 1.264,0 1.652,0.098 1.944,0.438 0.389,0.438 0.632,1.361 0.632,7.098 0,5.736 -0.243,6.708 -0.632,7.097 -0.292,0.34 -0.68,0.486 -1.944,0.486 H 1.993 C 0.729,14.681 0.34,14.584 0,14.195 -0.389,13.806 -0.583,12.834 -0.583,7.098 -0.583,1.361 -0.389,0.438 0,0 m -5.445,-4.618 c -1.75,1.75 -2.43,4.18 -2.43,11.716 0,7.583 0.68,9.965 2.43,11.764 1.118,1.167 2.577,1.604 5.299,1.604 h 8.702 c 2.722,0 4.181,-0.437 5.347,-1.604 1.75,-1.799 2.382,-4.181 2.382,-11.764 0,-7.584 -0.632,-9.966 -2.382,-11.716 -1.166,-1.216 -2.625,-1.653 -5.347,-1.653 h -8.702 c -2.722,0 -4.132,0.437 -5.299,1.653" /></g><g
           transform="translate(218.6431,61.7549)"
           id="g32"><path
             id="path34"
             style="fill:#ffffff;fill-opacity:1;fill-rule:nonzero;stroke:none"
             d="m 0,0 5.736,-8.361 h 3.598 v -5.785 H 1.069 L -5.591,-3.5 h -2.77 v -4.91 h 2.965 v -5.736 h -13.806 v 5.785 h 3.597 v 24.258 h -3.597 V 21.73 H -8.361 V 2.042 h 2.77 l 4.23,5.056 h -3.111 v 5.493 H 8.993 V 6.952 H 6.077 Z" /></g><path
           id="path36"
           style="fill:#ffffff;fill-opacity:1;fill-rule:nonzero;stroke:none"
           d="m 233.418,84.068 h 7.632 v -6.417 h -7.632 z m -3.257,-36.46 v 5.785 h 3.744 v 15.119 h -3.744 v 5.834 h 11.036 V 53.345 h 3.597 v -5.737 z" /><g
           transform="translate(253.3479,63.2619)"
           id="g38"><path
             id="path40"
             style="fill:#ffffff;fill-opacity:1;fill-rule:nonzero;stroke:none"
             d="M 0,0 H 9.042 C 9.042,3.597 8.799,4.764 8.459,5.153 8.167,5.445 7.73,5.591 6.223,5.591 H 2.965 C 1.458,5.591 0.972,5.493 0.583,5.104 0.243,4.764 0.049,3.889 0,0 m 0,-4.132 c 0.049,-4.375 0.292,-5.202 0.632,-5.542 0.34,-0.389 0.826,-0.486 2.333,-0.486 h 3.744 c 1.507,0 1.896,0.146 2.187,0.486 0.243,0.292 0.341,1.021 0.389,2.917 h 6.757 c -0.048,-3.987 -0.486,-6.028 -1.798,-7.341 -0.827,-0.826 -1.945,-1.555 -4.764,-1.555 H 0.583 c -2.722,0 -4.132,0.437 -5.298,1.652 -1.751,1.75 -2.431,3.841 -2.431,11.716 0,7.876 0.68,9.966 2.431,11.765 1.118,1.166 2.576,1.604 5.298,1.604 h 7.973 c 2.722,0 4.229,-0.438 5.347,-1.604 1.75,-1.75 2.139,-4.035 2.139,-11.716 v -0.827 c 0,-0.777 -0.194,-1.069 -1.069,-1.069 z" /></g><g
           transform="translate(71.7699,73.2978)"
           id="g42"><path
             id="path44"
             style="fill:#ffffff;fill-opacity:1;fill-rule:nonzero;stroke:none"
             d="m 0,0 c -1.473,-4.188 -3.72,-8.002 -6.568,-11.267 -2.849,3.271 -5.096,7.092 -6.567,11.287 2.109,0.414 4.287,0.633 6.515,0.633 C -4.355,0.653 -2.142,0.427 0,0 m -6.452,-30.955 c -14.181,8.814 -23.742,24.36 -24.209,42.173 7.19,3.845 15.402,6.027 24.125,6.027 2.829,0 5.604,-0.231 8.308,-0.673 0.231,-1.624 0.356,-3.283 0.356,-4.973 0,-1.533 -0.1,-3.043 -0.292,-4.524 -2.743,0.583 -5.586,0.891 -8.5,0.891 -0.074,0 -0.147,-0.002 -0.221,-0.003 V 7.934 c -5.33,-0.034 -10.42,-1.091 -15.089,-2.988 1.665,-10.658 7.297,-19.977 15.317,-26.353 0.012,0.01 0.024,0.02 0.036,0.029 v -0.054 C -0.419,-16.534 4.365,-9.88 7.01,-2.209 9.516,-3.322 11.863,-4.733 14.011,-6.395 9.965,-16.599 2.737,-25.195 -6.452,-30.955 M 16.287,0.903 c -2.341,1.59 -4.85,2.945 -7.497,4.029 0.343,2.172 0.525,4.398 0.525,6.667 0,1.072 -0.044,2.132 -0.122,3.183 0.004,-10e-4 0.009,-0.003 0.013,-0.004 -0.16,2.613 -0.548,5.163 -1.136,7.635 -4.654,1.262 -9.55,1.937 -14.604,1.937 -11.499,0 -22.184,-3.488 -31.054,-9.462 -0.101,-1.368 -0.153,-2.75 -0.153,-4.144 0,-21.967 12.726,-40.959 31.207,-50.013 14.146,6.931 24.921,19.685 29.196,35.139 -1.933,1.847 -4.059,3.542 -6.369,5.058 C 16.291,0.92 16.289,0.911 16.287,0.903" /></g><g
           transform="translate(96.2894,88.1857)"
           id="g46"><path
             id="path48"
             style="fill:#ffffff;fill-opacity:1;fill-rule:nonzero;stroke:none"
             d="m 0,0 c -2.315,1.559 -4.754,2.947 -7.298,4.149 0.249,-2.071 0.379,-4.179 0.379,-6.318 0,-0.5 -0.01,-0.998 -0.024,-1.494 0.005,-0.003 0.01,-0.006 0.016,-0.009 -0.011,-0.457 -0.032,-0.913 -0.055,-1.367 0.756,-0.409 1.508,-0.834 2.252,-1.285 1.616,-0.978 3.158,-2.031 4.629,-3.149 0.167,1.754 0.253,3.531 0.253,5.329 C 0.152,-2.75 0.101,-1.368 0,0" /></g></g></g></g></svg>